<svg width="94" height="92" viewBox="0 0 94 92" fill="none" xmlns="http://www.w3.org/2000/svg">
<path d="M0.522339 91.4303C1.81506 91.0384 3.10778 90.6465 4.40051 90.2154C8.63123 88.7653 13.0578 88.0598 17.4061 87.1193C17.8762 87.0017 18.0328 86.8057 18.0328 86.3746C18.0328 83.8272 18.0328 81.319 18.0328 78.7716C18.0328 78.2621 18.1895 77.9486 18.6204 77.6742C20.9709 76.3025 23.2821 74.9309 25.5933 73.5592C25.8284 73.4024 26.1026 73.2848 26.4551 73.0889C26.4551 77.3607 26.4551 81.5149 26.4551 85.7868C27.6303 85.63 28.688 85.4732 29.8632 85.3165C29.8632 85.0029 29.8632 84.6894 29.8632 84.3759C29.8632 79.2811 29.9024 74.1862 29.8632 69.0914C29.8632 68.4251 30.0591 68.1116 30.6467 67.8373C32.0178 67.171 33.3888 66.4656 34.7207 65.7602C34.9166 65.6818 35.1124 65.6034 35.3867 65.4858C35.3867 65.8385 35.4258 66.0737 35.3867 66.348C35.3083 66.8575 35.465 67.171 35.9351 67.4846C36.131 67.6413 36.2877 68.0332 36.2877 68.3076C36.3268 73.1673 36.2877 78.0269 36.2877 82.8474C36.2877 83.1218 36.2877 83.3569 36.2877 83.6313C36.9536 83.6705 36.9536 83.6705 36.9536 82.965C36.9536 80.1041 36.9536 77.2431 36.9536 74.343C36.9536 72.5402 36.9536 70.6982 36.9536 68.8954C36.9536 68.6603 36.9928 68.4251 36.9928 68.0724C37.7762 68.5819 38.4422 68.9738 39.069 69.4833C39.2257 69.6009 39.2257 69.9536 39.2257 70.1887C39.2257 74.0687 39.2257 77.9486 39.2257 81.7893C39.2257 82.0636 39.2257 82.338 39.2257 82.7299C39.6174 82.6515 39.8916 82.6123 40.2833 82.5339C40.2833 82.2204 40.2833 81.946 40.2833 81.6717C40.2833 74.4606 40.2833 67.2494 40.2833 59.9991C40.2833 59.372 40.4792 59.0585 41.0276 58.7841C42.0853 58.2747 43.0647 57.6476 44.1223 57.1381C44.5141 56.9422 44.7099 56.7462 44.6316 56.3151C44.6316 56.1975 44.6316 56.08 44.6316 55.9624C44.6316 54.5515 44.6316 54.5515 46.0418 54.3164C46.0418 53.4542 46.0418 52.5528 46.0418 51.573C46.7469 51.573 47.3737 51.573 48.0788 51.573C48.0788 52.396 48.0788 53.1798 48.0788 54.0812C48.4706 53.9245 48.7448 53.8069 49.1365 53.6501C49.1365 63.1735 49.1365 72.6578 49.1365 82.1812C49.7241 82.2596 50.2726 82.2988 50.8993 82.3771C50.8993 77.9878 50.8993 73.6375 50.8993 69.2482C51.5653 69.2482 52.1529 69.2482 52.7796 69.2482C52.7796 68.0332 52.7796 66.8575 52.7796 65.6426C53.3281 65.6034 53.7982 65.5642 54.3466 65.525C54.3466 64.6628 54.3466 63.8398 54.3466 62.9776C54.6208 62.8992 54.8167 62.86 55.0909 62.7816C55.0909 61.841 55.0909 60.9005 55.0909 59.9207C55.6785 59.9207 56.1486 59.9207 56.7753 59.9207C56.7753 60.7045 56.7362 61.4883 56.7753 62.2721C56.7753 62.4681 57.0104 62.7032 57.1279 62.8992C57.2062 63.056 57.3629 63.2127 57.3629 63.4087C57.4021 64.1141 57.3629 64.7804 57.3629 65.525C57.9505 65.5642 58.4598 65.5642 59.0474 65.6034C59.0474 66.8183 59.0474 67.9548 59.0474 69.1698C59.87 69.1698 60.6535 69.1698 61.4761 69.1698C61.4761 69.4441 61.4761 69.6793 61.4761 69.9144C61.4761 74.2254 61.4761 78.5364 61.4761 82.8083C61.4761 83.4745 61.5545 83.9056 62.3771 83.8664C62.6513 83.8664 62.9256 83.9448 63.3173 83.984C63.3173 82.338 63.3173 80.7703 63.3173 79.1635C67.1563 79.1635 70.8778 79.1635 74.6776 79.1635C74.6776 81.4366 74.6776 83.6705 74.6776 85.9435C76.2837 86.2963 77.8114 86.5706 79.3392 86.9625C81.9638 87.6287 84.5884 88.295 87.1739 89.0004C88.6625 89.3923 90.2686 89.6667 91.6788 90.4113C91.9139 90.5289 92.1489 90.6856 92.384 90.8032C92.5015 90.8816 92.619 90.96 92.7365 91.0384C92.8149 91.0776 92.9716 91.2343 93.0499 91.2343C62.2204 91.2343 31.391 91.2343 0.561512 91.2343C0.522339 91.5479 0.522339 91.5087 0.522339 91.4303ZM43.0255 59.2936C42.3595 59.372 42.3595 59.7639 42.3595 60.195C42.3595 69.6009 42.3595 79.0459 42.3595 88.4518C42.3595 88.6085 42.3204 88.8045 42.3595 88.9612C42.3987 89.0788 42.5554 89.2356 42.6729 89.2356C42.7904 89.2356 42.9471 89.0788 42.9863 88.9612C43.0255 88.7261 43.0255 88.4909 43.0255 88.2558C43.0255 79.477 43.0255 70.6982 43.0255 61.9586C43.0255 61.0964 43.0255 60.2342 43.0255 59.2936ZM23.8305 77.3999C23.2429 77.4783 23.2429 77.831 23.2429 78.2229C23.2429 80.5744 23.2429 82.965 23.2429 85.3165C23.2429 85.5908 23.2429 85.8652 23.2429 86.1395C23.3213 86.1787 23.3996 86.2179 23.4779 86.2179C23.5955 86.0219 23.7913 85.826 23.8305 85.5908C23.8697 84.8462 23.8305 84.0624 23.8305 83.3177C23.8305 81.3974 23.8305 79.3986 23.8305 77.3999Z" fill="#F26537"/>
<path d="M82.6691 66.0343C87.3699 59.0583 88.3492 51.1417 88.2709 42.9116C86.6648 43.9698 85.2937 45.2239 83.5701 45.655C82.2774 43.3819 81.0238 41.1872 79.6919 38.9141C79.496 39.0709 79.3785 39.1493 79.2218 39.3061C79.0651 39.1885 78.9084 39.0317 78.5559 38.7182C78.5559 39.1101 78.4775 39.3452 78.5559 39.5412C79.5744 41.6967 80.6321 43.8522 82.199 45.655C82.2382 45.6942 82.2774 45.7334 82.2774 45.7726C82.9825 47.3402 84.236 46.9875 85.4896 46.7132C85.7246 46.674 85.9597 46.5956 86.273 46.478C86.038 47.8105 85.6071 48.947 84.7845 49.8484C84.236 50.4363 83.6093 50.985 83.0608 51.5337C81.8073 52.7486 81.063 54.1595 81.4155 55.9622C81.5331 56.5109 81.4547 57.0596 81.4547 57.6083C81.4155 58.8232 80.7888 59.6462 79.6527 60.1165C79.3785 60.2341 79.0651 60.7044 79.1043 60.9787C79.2218 61.8409 78.7126 62.3112 78.2425 62.8207C78.0466 63.0558 77.9291 63.3693 77.8116 63.6437C77.7724 63.7612 77.8116 63.918 77.7332 63.9964C77.1065 64.741 76.4797 65.564 75.7746 66.2303C74.9519 67.0533 73.8551 66.8182 72.8366 66.8182C72.719 66.8182 72.5624 66.6614 72.484 66.5438C72.0923 65.76 71.7397 64.937 71.3871 64.1532C70.7212 62.5463 69.9769 60.9395 69.4285 59.2543C69.2718 58.7448 69.3893 58.0002 69.6243 57.4907C69.9377 56.8244 70.0553 56.2758 69.8594 55.5703C69.5852 54.473 69.311 53.4932 68.3316 52.7486C67.7049 52.2783 67.6657 51.5337 67.9399 50.789C68.0574 50.5147 68.1749 50.2012 68.1749 49.8876C68.1749 49.2606 67.8224 48.947 67.1564 48.9862C66.6863 49.0254 66.2946 49.0254 66.0204 48.4768C65.8245 48.0456 64.8452 48.0065 64.2184 48.32C63.5133 48.6727 63.5133 48.6727 62.8865 48.0848C62.1814 48.6727 61.3979 48.4768 60.6145 48.5159C59.1259 48.5943 58.4208 47.7321 57.6373 46.7915C57.0889 46.1253 56.5404 45.459 55.9528 44.8712C55.6786 44.5968 55.6394 44.3617 55.8353 44.009C56.2662 43.2643 56.658 42.5197 56.2662 41.5791C56.1487 41.2656 56.4229 40.7561 56.6188 40.4034C57.3239 39.2669 58.4991 38.6398 59.596 38.0127C60.066 37.7384 60.4186 37.4249 60.6928 36.9154C61.1629 36.0924 61.7897 35.3086 62.9649 35.3869C63.3174 35.3869 63.67 35.1126 64.0226 34.9167C64.3359 34.7207 64.5318 34.2896 65.0411 34.6423C65.1586 34.7207 65.472 34.6031 65.6678 34.6031C66.608 34.4856 67.5482 34.368 68.5667 34.2504C68.6058 34.9558 68.645 35.5829 68.6842 36.1316C69.781 36.6019 70.7995 37.0722 71.8181 37.5816C72.3665 37.8168 72.6799 37.7384 72.7974 37.1114C72.8757 36.5627 73.2283 36.4843 73.6984 36.6803C75.0695 37.3073 76.4797 37.5033 77.9683 37.3465C78.3992 37.3073 78.6342 37.1897 78.7517 36.7978C78.9868 36.1708 79.2218 35.5045 79.5352 34.7207C78.9476 34.6815 78.5167 34.6031 78.0858 34.5639C77.6157 34.5247 77.1848 34.4856 76.7147 34.4072C76.6756 34.4072 76.6756 34.368 76.6364 34.368C75.0303 34.7599 74.7561 33.3098 74.0118 32.4868C73.0716 32.8395 72.9933 33.3098 73.7376 34.2896C73.2283 34.4464 72.9149 34.2896 72.6015 33.9369C72.5624 33.8977 72.5232 33.8585 72.5232 33.8193C72.249 32.7612 71.6222 31.9773 70.4078 31.4678C71.583 30.88 71.7005 29.9394 71.9356 28.9988C71.9748 28.842 72.0531 28.6069 72.2098 28.5677C73.3066 28.019 74.4427 27.5096 75.6571 26.9609C75.9704 28.019 76.2447 28.9988 76.5189 29.9786C76.558 30.0962 76.4797 30.2529 76.4013 30.3705C76.1663 30.88 76.323 31.3111 76.7147 31.6638C77.0673 32.0165 77.4199 32.1341 77.9291 31.8598C78.2817 31.703 78.7518 31.7814 79.1827 31.7422C79.3785 31.7422 79.5744 31.7422 79.7311 31.6638C80.6712 31.3111 81.4547 30.1354 81.4547 29.1164C81.4547 27.9407 81.4547 26.7649 81.6114 25.5108C81.8073 25.8635 82.0423 26.2162 82.2382 26.569C84.3144 30.1745 85.6854 34.0545 86.3122 38.2087C86.3514 38.4438 86.2339 38.7182 86.1947 38.9533C85.9988 38.7966 85.7638 38.6398 85.5679 38.4438C85.2937 38.1695 85.0587 37.856 84.7453 37.5033C84.1577 37.856 84.1577 38.2087 84.5102 38.679C84.7845 39.0317 85.0195 39.3844 85.2154 39.7763C85.6463 40.5994 85.9988 40.6777 86.7823 40.2074C87.0173 40.0899 87.3699 40.1683 87.7616 40.1683C87.1349 33.9761 84.902 28.2542 81.6114 22.9242C81.7289 22.8066 81.8464 22.7282 81.9248 22.6891C82.199 22.5323 82.5124 22.3755 82.9433 22.1404C83.6876 23.4729 84.4711 24.8054 85.137 26.1379C87.7225 31.2719 89.1327 36.6803 89.4853 42.4021C89.877 48.8295 89.1719 55.1392 86.7431 61.1746C84.236 67.3668 80.162 72.4617 74.7952 76.42C74.6777 76.4983 74.521 76.5767 74.3643 76.6551C74.3252 76.6159 74.286 76.6159 74.286 76.5767C73.6984 75.0091 73.6984 75.0091 75.1086 74.0293C75.422 73.7942 75.7354 73.559 76.1271 73.2455" fill="#0F3A5D"/>
<path d="M78.5951 15.2037C78.1642 15.5173 77.8117 15.7916 77.4199 16.0659C67.3524 5.13165 54.8952 0.507103 40.2052 1.8396C29.8242 2.78018 21.7154 7.60068 16.5836 12.6955C17.2888 13.3226 18.1114 13.4401 18.7773 12.8523C19.4825 12.2644 20.3443 12.3428 21.0886 12.2252C21.5195 12.1468 22.0679 12.5779 22.6163 12.8131C22.6163 12.8915 22.6555 13.0874 22.6947 13.2442C23.7132 13.5969 24.6925 13.6753 25.6719 13.401C25.8677 13.3618 26.1419 13.5577 26.377 13.5969C26.5729 13.6361 26.7687 13.7537 26.9254 13.7145C27.4347 13.5577 27.9439 13.3618 28.4924 12.9699C28.2573 12.8915 28.0614 12.7739 27.7872 12.6955C28.0614 12.4996 28.3357 12.2644 28.5707 12.0685C28.4532 11.5982 28.1006 11.0495 28.2573 10.8535C28.6882 10.3049 29.4325 10.5008 30.1376 10.6576C29.6284 11.2454 29.8242 12.2252 28.9624 12.7739C28.9233 13.2442 29.1583 13.7145 29.9809 13.6361C30.4118 12.7739 31.2737 13.205 31.9396 12.9699C31.9788 13.0482 32.018 13.0874 32.0571 13.1658C31.587 13.5185 31.1561 13.9888 30.6077 14.1848C28.6882 14.851 27.1605 16.0659 25.5152 17.1633C25.0059 17.516 24.6534 18.0647 24.1833 18.5742C25.2018 19.3972 26.0636 20.2986 27.3955 20.2202C27.3955 20.8472 27.3171 21.3567 27.4347 21.7878C27.4738 21.9446 28.0614 21.9446 28.4532 22.023C28.4924 21.7486 28.5315 21.5527 28.5315 21.3959C28.6099 20.6513 28.8057 19.985 29.7067 19.8283C30.0593 19.7499 30.216 19.5148 30.2552 19.0837C30.2943 18.2998 30.5685 17.516 30.8036 16.7714C30.8428 16.6538 31.2737 16.5754 31.5087 16.5754C31.8613 16.5754 32.2138 16.693 32.5664 16.693C33.0756 16.693 33.3107 16.889 33.389 17.3592C33.5849 18.8877 34.055 19.0837 35.3085 18.2606C35.6611 18.0255 36.0136 18.0647 36.0528 18.535C36.092 19.7499 36.8363 20.4945 37.5806 21.2783C38.0115 21.7095 37.9331 22.4149 37.3847 22.5717C36.4054 22.846 35.426 23.0419 34.3292 22.9636C33.0756 22.8852 31.7437 23.2771 30.9211 24.5312C31.1561 24.4528 31.4304 24.3744 31.6654 24.2961C32.1747 24.1393 32.7231 23.9825 33.2323 23.865C33.389 23.8258 33.5849 23.9825 33.7808 24.0609C33.6632 24.1785 33.5849 24.3353 33.4282 24.4528C33.3499 24.5312 33.2323 24.6096 33.154 24.6488C33.5065 25.511 33.5849 25.511 35.4652 25.3542C35.4652 25.4326 35.5044 25.4718 35.5044 25.5502C34.8776 25.7069 34.29 25.8245 33.6632 25.9813C33.389 26.0597 33.0756 26.138 32.8014 26.2164C32.6839 26.2556 32.5272 26.2164 32.3705 26.2556C32.4097 26.0988 32.4489 25.9813 32.5272 25.7853C32.0963 25.5894 31.7829 25.7069 31.2737 25.9813C30.4118 26.4516 29.6284 27.0394 28.8057 27.5881C27.8656 28.2152 26.9646 28.7246 26.612 29.8612C26.5337 30.0571 26.4162 30.2531 26.2595 30.4099C25.5152 30.9585 24.7709 31.5072 24.0266 32.0559C23.8307 32.2127 23.674 32.4478 23.6348 32.6437C23.5957 32.9573 23.674 33.31 23.7524 33.6235C23.9091 34.2898 23.8307 34.8384 23.3215 35.4263C23.0864 34.8384 22.8122 34.329 22.6555 33.7803C22.303 32.6046 21.2844 32.1735 20.2268 32.7613C19.7567 32.9965 19.4041 33.1532 18.8557 32.8789C17.798 32.4086 16.2311 33.2316 15.8785 34.3682C15.6826 35.0344 15.4084 35.6615 15.2517 36.3277C15.0559 37.3467 15.6043 38.3265 16.4269 38.6008C17.3671 38.9143 18.1897 38.444 18.464 37.3467C18.934 37.3467 19.4041 37.3467 20.0309 37.3467C19.7959 37.817 19.6 38.2089 19.4433 38.6008C19.0907 39.3846 19.2866 39.6589 20.1484 39.6589C21.2453 39.6198 21.7937 40.3252 21.4803 41.3834C21.402 41.6969 21.3236 42.0496 21.3236 42.3631C21.3236 42.951 21.6762 43.3429 22.2638 43.3037C22.9297 43.2645 22.773 43.578 22.6555 43.97C21.6762 43.97 21.0102 43.3429 20.4226 42.7158C20.3835 42.6767 20.3051 42.5983 20.3051 42.5591C20.1092 41.0698 18.934 40.9914 17.798 40.7955C17.6413 40.7563 17.4846 40.7563 17.4063 40.6779C16.897 40.0117 16.1527 40.0509 15.4084 39.8941C14.1157 39.6198 12.9797 39.0319 12.0395 38.0913C11.8045 37.8562 11.6086 37.6994 11.8437 37.2291C12.157 36.6412 11.8045 36.0926 11.3736 35.7006C10.3942 34.7993 10.0417 33.5451 9.53242 32.3694C9.37573 31.9775 9.4149 31.5072 9.21904 31.0761C8.70978 31.8991 8.86648 32.7221 9.14069 33.5451C9.45408 34.4073 9.76746 35.2695 9.4149 36.3277C9.25821 36.1317 9.14069 36.0142 9.06234 35.8574C8.78813 35.1912 8.55309 34.5249 8.27887 33.8587C8.2397 33.7803 8.20053 33.7019 8.20053 33.6235C8.20053 32.8005 8.27888 31.9775 8.2397 31.1545C8.2397 30.841 8.12218 30.4491 7.92631 30.2531C7.14285 29.5477 7.0645 28.6463 7.22119 27.7057C7.49541 26.138 8.43557 24.9231 9.25821 23.6298C9.5716 23.1595 9.76746 22.5717 9.96333 22.023C10.2767 21.1608 10.5509 20.2986 10.8251 19.4364C10.8643 19.2796 10.8643 19.1228 10.7468 18.8877C10.1984 19.6323 9.5716 20.377 9.06234 21.1608C3.69559 29.1166 1.18849 37.8562 1.58022 47.4188C1.77609 52.2393 2.75543 56.903 4.36153 61.41C4.40071 61.4883 4.40071 61.5275 4.43988 61.6059C4.87079 62.86 4.87079 62.86 3.49972 63.6047C2.95129 61.9194 2.36369 60.2734 1.85444 58.549C0.561715 54.0029 -0.104232 49.3391 0.0132879 44.597C0.209155 35.5047 2.91212 27.2354 8.12218 19.7891C11.922 14.3415 16.5445 9.717 22.2246 6.1898C28.6882 2.34908 35.5436 0.311148 42.9865 0.0368104C51.1737 -0.276718 58.9301 1.4085 66.1772 5.24922C70.7213 7.67906 74.717 10.8535 78.2034 14.6551C78.3209 14.8118 78.4384 15.0078 78.5951 15.2037ZM22.773 24.6488C23.2431 24.7272 23.6348 24.8839 23.9874 24.8839C24.4575 24.8839 24.6925 24.9623 24.4967 25.511C24.4575 25.6286 24.3791 25.7853 24.3791 25.9029C24.3791 26.0988 24.4575 26.2948 24.5358 26.4908C24.6925 26.4124 24.8884 26.334 25.0451 26.2556C25.3193 26.138 25.5935 26.0205 25.8677 25.9029C25.9069 26.1772 25.9461 26.4124 26.0244 26.8043C26.5337 26.6083 27.1213 26.334 27.7089 26.0988C27.7089 26.0205 27.7089 25.9421 27.6697 25.8637C27.278 25.9029 26.8862 25.9029 26.4945 25.9421C26.5729 25.4326 26.4945 25.0407 25.8677 25.0015C25.7502 25.0015 25.6327 24.8447 25.5935 24.7664C24.8884 23.5122 23.7915 23.3947 22.773 24.6488Z" fill="#0F3A5D"/>
<path d="M80.7496 20.9256C80.3187 21.1216 80.162 21.3567 80.1228 21.827C80.0444 24.0217 79.9269 26.2164 79.8486 28.4111C79.8094 29.0381 79.6135 29.2733 78.5167 29.9395C77.8507 27.9408 77.1456 25.9812 76.4405 23.9041C75.657 24.296 74.9127 24.6096 74.2076 24.9623C73.2283 25.4326 72.2489 25.9812 71.2696 26.4123C70.7995 26.6083 70.6037 26.9218 70.5253 27.4313C70.4078 28.1367 70.4861 28.999 69.4676 29.3517C69.2326 28.8422 69.0367 28.2935 68.7625 27.7056C68.0574 28.1759 67.4306 28.6462 66.7647 29.0773C59.7918 33.8194 53.0148 38.7967 46.4337 44.0875C40.7927 48.6337 35.896 53.9244 31.822 59.9207C31.5478 60.3126 31.2736 60.7437 30.9602 61.2532C29.9808 60.2342 29.0407 59.2936 27.4346 59.176C27.9047 58.6274 28.218 58.2355 28.5706 57.8044C35.2693 50.0445 42.9864 43.4604 51.487 37.8169C56.9321 34.2114 62.3381 30.5274 67.7832 26.8826C67.8615 26.8043 67.979 26.7259 68.1357 26.6083C66.9997 25.5109 65.8637 24.4528 64.7276 23.3554C64.7668 23.2379 64.806 23.1203 64.8452 23.0419C65.3544 23.0811 65.8637 23.0027 66.3338 23.1203C67.3131 23.4338 68.2533 23.8649 69.1934 24.2176C69.3893 24.296 69.7027 24.3352 69.8594 24.2176C71.1521 23.2379 72.4448 22.1797 73.855 21.0824C71.7397 20.1026 69.7027 19.2012 67.7048 18.2606C68.8409 17.8687 69.8202 17.2416 71.0737 17.516C72.8757 17.9471 74.7169 18.2606 76.558 18.5741C76.9106 18.6525 77.3807 18.5349 77.694 18.339C79.0651 17.4768 80.3578 16.5754 81.6897 15.674C82.4732 15.1253 83.335 14.7334 84.3143 14.9294C85.0195 15.0469 85.7638 15.2037 86.3905 15.5172C86.8606 15.7132 86.8998 16.2619 86.5472 16.693C86.2338 17.0849 85.8029 17.3592 85.4504 17.7119L80.7496 20.9256ZM85.0586 15.7132C85.0195 15.6348 85.0195 15.5564 84.9803 15.478C84.1185 15.1253 82.8649 15.7132 82.5907 16.8105C83.4917 16.4186 84.2752 16.0659 85.0586 15.7132Z" fill="#F26537"/>
<path d="M8.08289 60.195C11.0992 59.6463 13.0971 61.0964 14.1156 64.7803C14.4682 63.9965 14.7424 63.2519 15.1341 62.5465C15.9567 61.0572 16.9753 59.8423 18.7772 59.6463C19.8741 59.5287 20.8534 59.8031 21.7544 60.5477C19.3257 61.3707 17.4062 62.8208 15.8784 64.8195C17.8371 63.7614 19.7957 62.8208 22.0286 63.8398C23.3213 64.4276 24.144 65.4074 24.7316 66.7007C21.7152 66.348 18.7381 65.8385 15.7609 66.4656C17.4453 66.7791 19.0123 67.3669 20.1875 68.6602C21.4018 69.9927 21.7544 71.5996 21.7544 73.4416C19.5215 71.678 17.367 69.9536 15.2124 68.2292C15.1341 68.2683 15.0949 68.3075 15.0166 68.3859C16.1526 69.9536 16.3876 71.678 15.8784 73.4807C15.5258 74.7741 14.8599 75.9106 13.763 76.9687C13.6455 74.0686 13.4888 71.2861 13.3713 68.5035C13.293 68.5035 13.2538 68.4643 13.1754 68.4643C12.0394 71.3252 11.1776 74.2646 10.5116 77.2431C9.84569 80.3 9.689 83.3569 10.0416 86.6097C9.17974 86.1395 8.43545 85.7867 7.73033 85.3556C7.61281 85.2773 7.57364 84.9245 7.57364 84.6894C7.65198 80.4959 8.5138 76.4593 10.3549 72.6577C11.0992 71.1293 11.8827 69.64 12.7053 67.994C9.84569 69.3265 7.3386 71.0509 4.71398 72.6577C4.75315 69.9927 6.63347 67.2494 11.491 66.5831C11.491 66.5047 11.5301 66.4656 11.5301 66.3872C9.14057 66.0344 6.75099 65.7209 4.2439 65.329C5.4191 64.2317 6.5943 63.5262 8.08289 63.487C9.57148 63.4478 10.7467 64.2317 11.8827 65.0939C11.9611 65.0155 12.0002 64.9763 12.0786 64.8979C11.4126 64.1141 10.7467 63.2911 10.0807 62.5073C9.49313 61.6842 8.74884 60.9396 8.08289 60.195Z" fill="#F26537"/>
<path d="M27.1209 55.2961C27.0034 54.669 26.3374 54.473 25.7106 54.1595C25.4364 54.0419 25.1622 53.846 24.9663 53.6108C24.5354 53.023 24.1045 52.4351 23.7128 51.8081C23.2427 51.0242 22.6159 50.2012 22.5376 49.3782C22.4592 48.6336 22.851 47.693 23.3602 47.0659C23.987 46.3605 23.987 45.5767 24.1437 44.7537C24.1829 44.6361 23.9478 44.4401 23.8303 44.3226C23.6345 44.1266 23.3994 43.9307 23.1644 43.7347C23.3211 43.5387 23.4778 43.382 23.5953 43.2252C24.5354 44.2442 24.7705 42.9901 25.3189 42.7157C25.7498 42.4806 26.2199 42.3238 26.6508 42.1671C26.9642 42.0495 27.3168 41.9319 27.6301 41.8535C27.7868 41.8143 28.0219 41.7751 28.1394 41.8143C29.0012 42.3238 29.863 42.3238 30.6073 41.7751C31.4691 42.5198 32.3309 43.2644 33.1928 43.9698C33.3495 44.0874 33.6237 44.0482 33.8587 44.009C35.5432 43.7739 36.3266 44.4793 36.2875 46.1645C36.2875 46.3213 36.1699 46.4781 36.0916 46.5956C33.1536 49.4958 30.0981 52.3959 27.1209 55.2961Z" fill="#0F3A5D"/>
<path d="M41.4583 11.0886C41.3799 11.0495 41.1841 10.9319 40.949 10.8143C41.0274 10.6575 41.1057 10.5008 41.1449 10.3832C41.3799 9.87373 41.1449 9.32505 40.5573 9.28586C39.7738 9.20748 38.9512 9.24667 38.1677 9.20748C37.8543 9.20748 37.5409 9.16829 37.0709 9.08991C37.3451 8.85476 37.4626 8.73719 37.7368 8.50204C37.3842 8.50204 37.1492 8.50204 36.9142 8.50204C36.875 8.46285 36.875 8.42366 36.8358 8.38447C36.9925 8.26689 37.1492 8.11013 37.3451 8.03175C37.9327 7.67903 38.5594 7.24793 39.1862 6.9344C39.5388 6.73844 40.0089 6.69925 40.4006 6.58168C41.3016 6.26815 42.2417 5.95462 43.1427 5.6411C43.1819 5.6411 43.2603 5.6019 43.2603 5.6411C44.0046 6.0722 44.7488 5.6411 45.4931 5.6411C45.8457 5.6411 46.1983 5.44514 46.5508 5.36676C47.8435 5.01404 49.0971 4.62213 50.3898 5.48433C50.0764 5.52352 49.763 5.56271 49.4888 5.6019C50.5857 6.46411 51.9176 5.56271 53.132 6.26815C52.466 6.42492 51.9176 6.54249 51.33 6.69925C51.6434 7.20874 52.231 7.28712 52.8969 6.9344C53.4062 6.66006 53.9154 6.38573 54.5814 6.81683C54.2288 6.89521 53.9938 6.97359 53.7196 7.05197C52.5835 7.3655 52.6227 8.42366 52.3093 9.24667C52.1918 9.52101 52.0743 9.83454 51.9567 10.1089C51.8784 10.3832 51.8001 10.6575 51.6434 10.8927C51.4867 11.2062 51.3691 11.5589 51.1733 11.8725C51.0558 12.1076 50.8991 12.4211 50.664 12.5387C49.2146 13.3225 47.726 14.1064 46.2766 14.8902C45.3364 15.3605 44.6313 15.9875 44.4746 17.0849C44.3963 17.4768 44.1612 17.6336 43.7303 17.5944C41.85 17.516 41.1449 16.8889 40.9098 15.0861C40.8707 14.8902 40.7532 14.6942 40.7532 14.4591C40.7532 14.2631 40.7923 13.8712 40.9098 13.832C41.5366 13.5969 41.4975 13.1658 41.4191 12.6563C41.4191 12.186 41.4583 11.7157 41.4583 11.0886Z" fill="#0F3A5D"/>
<path d="M64.6104 14.3416C64.8846 14.0672 65.1588 13.7537 65.5114 13.401C65.198 13.1658 64.963 13.0091 64.6496 12.7739C64.3362 13.1658 63.9836 13.4794 63.7486 13.8713C63.6311 14.0672 63.7094 14.4199 63.7878 14.6159C64.2578 15.7133 64.0228 16.4187 62.8868 16.8106C62.7301 16.8498 62.4167 16.693 62.2992 16.5363C62.1033 16.3011 61.9858 15.9484 61.7899 15.6349C61.3982 15.7916 61.0456 15.9484 60.6931 16.1052C60.458 15.7524 60.0663 15.3997 60.0663 15.0078C60.0663 14.5767 60.2621 13.9497 60.5755 13.7929C61.2807 13.3618 61.9466 12.9699 62.1816 12.1077C62.2208 11.9117 62.495 11.7941 62.6517 11.6374C62.8084 11.5198 63.0043 11.3239 63.2002 11.2847C63.8269 11.1279 64.4537 10.8928 65.0413 10.9711C66.1773 11.1279 67.2742 11.5198 68.4494 11.8333C68.3319 12.1469 68.2535 12.382 68.1752 12.6172C67.8226 12.4996 67.5484 12.4212 67.1567 12.3036C67.7834 13.5186 68.6061 12.9699 69.3112 12.9307C69.4287 12.6955 69.5854 12.4996 69.7421 12.2252C69.6246 12.1469 69.4679 12.0293 69.3112 11.8725C69.3504 11.7941 69.3504 11.755 69.3895 11.6766C69.6638 11.7941 70.0163 11.7941 70.2122 11.9901C70.6039 12.3428 70.9173 12.4604 71.2699 11.7941C71.3874 12.0685 71.4266 12.2252 71.5049 12.3428C71.6224 12.4996 71.8183 12.7347 72.0142 12.7347C72.9935 12.7739 73.1502 12.9699 72.7976 13.9888C73.9337 14.3024 73.5028 15.4781 73.9337 16.3403C73.2677 16.2227 72.5626 16.1052 71.8966 15.9484C70.4081 15.5957 68.9586 15.3997 67.47 16.0268C66.4907 16.4187 65.4722 17.9863 65.7464 18.9661C65.7856 19.1621 66.0598 19.3188 66.2557 19.4364C67.1175 19.8675 68.0185 20.2986 68.8803 20.7297C69.272 20.9257 69.6638 21.2 70.0555 21.4351C69.5462 22.023 69.1153 22.3365 68.3319 21.9838C67.3917 21.5919 66.4124 21.2784 65.3939 21.1216C64.8454 21.0432 64.2578 21.2392 63.7094 21.3568C63.5527 21.396 63.396 21.396 63.2785 21.4351C62.9259 21.5527 62.495 21.5919 62.2208 21.8271C62.1033 21.9446 62.2208 22.3757 62.26 22.7284C62.0641 22.6501 61.7507 22.5325 61.4373 22.4933C60.8497 22.4149 59.8312 23.0028 59.5179 23.5123C59.4003 23.7474 59.1261 23.9042 58.9303 24.1001C58.8127 24.2177 58.6169 24.3353 58.5777 24.4529C58.3818 25.0407 57.755 25.5502 57.1283 25.5894C56.8541 25.5894 56.5407 25.6286 56.1881 25.6678C55.9922 25.5502 55.7572 25.3934 55.3263 25.1191C55.4046 24.492 55.4438 23.7474 55.6397 23.042C55.6789 22.846 56.1098 22.6893 56.384 22.6109C56.6974 22.5325 57.0891 22.6893 57.3633 22.6109C57.7159 22.4933 58.186 22.2582 58.2251 21.9838C58.3035 21.7095 57.9509 21.3568 57.755 21.004C57.7159 20.9257 57.5984 20.9257 57.4025 20.8081C58.3818 20.1026 59.322 19.4364 60.3405 18.731C60.2621 18.1431 60.6539 18.0255 61.2807 17.9471C62.4167 17.8296 63.5527 17.5944 64.6496 17.3201C65.0413 17.2417 65.3547 16.9282 65.7072 16.7322C65.3939 15.9876 65.3939 15.9876 66.334 15.243C65.7856 14.9294 64.7671 15.3997 64.6104 14.3416Z" fill="#0F3A5D"/>
<path d="M62.1421 26.0595C62.8081 25.6676 63.3957 25.3149 63.3173 24.2959C64.14 24.6486 64.5317 25.3149 65.1585 25.8635C64.8843 26.0595 64.6884 26.2163 64.4534 26.3338C61.9463 27.8623 59.4392 29.3907 56.9321 30.9192C56.5795 31.1151 56.1486 31.1543 55.7177 31.3111C55.561 30.8016 55.1301 30.4881 55.561 30.0178C55.6002 29.9786 55.561 29.7435 55.5218 29.7043C54.9342 29.2732 55.3651 28.9204 55.561 28.4893C55.7961 27.9799 56.5012 27.5879 56.0703 26.8041C56.7754 26.7257 57.4413 26.6082 58.1073 26.5298C58.2248 26.4906 58.3815 26.4514 58.499 26.373C59.2433 26.0595 59.9484 25.7068 60.6927 25.4324C61.7504 24.9621 61.7504 25.0013 62.1421 26.0595Z" fill="#0F3A5D"/>
<path d="M30.9993 11.7157C30.7251 11.7548 30.5292 11.794 30.2158 11.8332C30.2942 11.6373 30.2942 11.4805 30.3725 11.4021C30.7642 11.1278 31.156 10.8926 31.5477 10.6575C31.7044 10.5791 32.057 10.4224 32.0961 10.5007C32.4487 10.8535 32.8013 10.6183 33.1538 10.5007C33.8589 10.2656 34.4074 10.5007 34.9166 10.9318C35.3867 11.3237 35.9351 11.6373 36.4444 11.99C37.1103 12.4603 37.1495 13.0873 36.4444 13.5968C36.6794 13.7536 36.9145 13.9495 37.1495 14.0671C37.3846 14.2239 37.6196 14.3023 37.8938 14.459C37.3454 15.0469 37.3062 15.0469 35.5826 14.4198C35.3475 14.8509 35.5434 15.0469 35.896 15.2428C36.2877 15.4388 36.6403 15.6348 36.4836 16.1442C35.6609 16.6145 35.5042 15.4388 34.6424 15.4388C34.8775 15.7915 35.0733 15.9875 35.1517 16.2226C35.23 16.4186 35.23 16.6145 35.23 16.8105C35.0341 16.7713 34.8383 16.7713 34.6816 16.6929C34.4074 16.5362 34.1723 16.3402 33.8981 16.1834C33.7806 16.1051 33.5456 16.0659 33.5456 15.9483C33.428 15.2037 32.958 15.1645 32.3312 15.3996C32.3312 15.3212 32.292 15.2428 32.292 15.1645C32.4879 15.0469 32.6446 14.9685 32.8404 14.8901C33.2322 14.7334 33.7023 14.655 33.9373 14.3806C34.1332 14.1847 34.2507 13.5968 34.094 13.4009C33.7806 13.009 33.3497 12.7346 32.8796 12.4995C32.7229 12.4211 32.4095 12.4995 32.1745 12.5387C31.4694 12.6954 31.2735 12.5779 30.9993 11.7157Z" fill="#0F3A5D"/>
<path d="M71.8963 76.1064C69.7809 76.1064 67.6656 76.1064 65.5894 76.1064C65.4327 74.1861 66.8821 72.4225 68.6449 72.3833C70.4077 72.3833 72.0138 74.1469 71.8963 76.1064Z" fill="#F26537"/>
<path d="M72.6797 76.812C72.6797 77.4783 72.6797 78.0269 72.6797 78.6148C70.0942 78.6148 67.548 78.6148 64.9625 78.6148C64.9625 78.0269 64.9625 77.4391 64.9625 76.812C67.5088 76.812 70.0551 76.812 72.6797 76.812Z" fill="#F26537"/>
<path d="M33.9374 5.91553C36.3269 5.36685 38.7165 4.93575 41.2236 5.52362C39.3041 6.34663 37.4238 7.16964 35.5043 7.99265C35.5435 8.07103 35.5826 8.11023 35.6218 8.18861C35.3868 8.38456 35.1909 8.6589 34.9167 8.77647C34.2508 9.01162 32.8797 8.38456 32.6055 7.87508C32.9189 7.95346 33.3106 8.07103 33.6631 8.11023C33.7415 8.11023 33.8198 7.87508 33.8982 7.7967C33.3498 7.56155 32.8797 7.32641 32.1746 7.05207C32.8013 6.66016 33.1931 6.38582 33.624 6.11148C33.7023 7.13045 34.4858 7.52236 35.7785 7.28721C35.1909 6.97369 34.525 6.62097 33.8982 6.26825C33.8982 6.11148 33.8982 5.99391 33.9374 5.91553Z" fill="#0F3A5D"/>
<path d="M22.2635 11.4805C22.9295 11.0886 23.6738 10.6575 24.4181 10.2264C24.4964 10.1872 24.7315 10.1872 24.8098 10.2656C25.3974 10.8535 26.0634 10.9319 26.8077 10.5791C26.886 10.54 27.0035 10.5791 27.1602 10.5791C27.0819 10.6967 27.0427 10.8143 27.0035 10.8927C26.3768 12.813 25.985 13.0874 24.0264 12.9698C23.8305 12.9698 23.6346 12.813 23.4779 12.6955C23.1254 12.3427 22.7728 11.99 22.2635 11.4805Z" fill="#0F3A5D"/>
<path d="M84.1181 57.7261C84.7449 58.941 83.6481 61.8411 82.3553 62.5858C81.611 61.6844 82.4337 60.783 82.4337 59.9208C82.4729 58.8234 83.8831 58.745 84.1181 57.7261Z" fill="#0F3A5D"/>
<path d="M58.9694 18.339C58.891 19.0053 58.6951 19.5148 57.8725 19.5932C57.4416 19.6324 57.0107 19.7107 56.8148 19.1229C57.0107 19.0445 57.2066 19.0053 57.4024 18.9269C57.3632 18.8877 57.2849 18.8485 57.2457 18.8093C57.3632 18.535 57.4808 18.2607 57.5983 17.9863C57.6766 17.7904 57.755 17.6336 57.8725 17.4377C57.6766 17.3985 57.4808 17.3593 57.1674 17.2809C57.1282 17.2025 57.0107 17.0066 56.8932 16.8498C57.0107 16.4971 57.089 16.1835 57.2457 15.7524C58.3426 16.2619 58.0684 17.7512 58.9694 18.339Z" fill="#0F3A5D"/>
<path d="M30.2551 10.0306C30.0985 9.59948 30.0201 9.32514 29.9026 9.0508C30.2551 8.97242 30.5685 8.73728 30.9211 9.20757C31.0778 9.44271 31.5479 9.48191 32.0963 9.63867C31.9004 9.28595 31.7829 9.12919 31.7829 9.01161C31.7829 8.89404 32.0571 8.69808 32.0963 8.73728C32.9189 9.24676 33.8199 9.0508 34.7209 9.12919C34.7993 9.12919 34.8776 9.20757 35.1127 9.28595C34.6817 9.56029 34.3292 9.75624 33.8591 10.0698C33.9374 9.75624 33.9766 9.59948 33.9766 9.5211C32.6839 9.71705 31.4304 9.87382 30.2551 10.0306Z" fill="#0F3A5D"/>
<path d="M38.2069 22.6499C38.0894 23.0026 38.011 23.2378 37.9327 23.5513C38.1677 23.6689 38.4419 23.7864 38.6378 23.9824C38.7553 24.1 38.8336 24.3351 38.8336 24.5311C38.8336 24.6095 38.5594 24.8446 38.5203 24.8054C37.8151 24.3743 37.11 24.4919 36.3657 24.6486C36.9533 24.0608 36.9533 22.885 38.2069 22.6499Z" fill="#0F3A5D"/>
<path d="M51.4478 14.6551C52.3487 14.1456 54.3466 14.1456 54.7775 14.6551C53.6806 15.0862 52.5838 15.87 51.4478 14.6551Z" fill="#0F3A5D"/>
<path d="M60.3011 7.71815C60.1836 7.63976 60.0269 7.56138 59.8702 7.44381C60.2619 7.09109 60.5753 6.85594 61.0454 7.24785C61.1237 7.32624 61.3196 7.20866 61.4763 7.20866C61.4763 7.13028 61.4763 7.01271 61.4763 6.93433C61.7897 6.97352 62.103 7.0519 62.4164 7.09109C62.4164 7.16947 62.4164 7.24785 62.4556 7.36543C62.103 7.44381 61.7505 7.52219 61.3196 7.60057C61.4371 7.75734 61.5154 7.9141 61.6721 8.11006C61.5154 8.18844 61.3588 8.30601 61.0845 8.46278C61.1237 8.18844 61.1237 8.07087 61.1629 7.79653C60.7712 7.95329 60.4578 8.14925 60.1444 8.14925C59.831 8.14925 59.4784 7.9141 59.165 7.79653C59.165 7.71815 59.2042 7.63976 59.2042 7.56138C59.5959 7.63976 59.9877 7.71815 60.3402 7.83572C60.2619 7.79653 60.2619 7.75734 60.3011 7.71815Z" fill="#0F3A5D"/>
<path d="M26.0247 38.1697C25.3196 37.817 24.5361 37.5035 23.8702 37.0724C23.0475 36.4845 22.3032 37.0724 21.5198 37.0332C22.1465 36.5237 22.7733 36.2102 23.5568 36.5629C24.4186 36.994 25.3196 37.3859 26.1814 37.7778C26.1422 37.9346 26.0639 38.0521 26.0247 38.1697Z" fill="#0F3A5D"/>
<path d="M56.8144 17.6335C56.6577 18.0646 56.5794 18.339 56.4618 18.6133C56.1485 18.6917 55.7959 18.8092 55.4433 18.8876C55.2866 18.2606 55.6784 17.8687 56.0701 17.5943C56.1876 17.5159 56.501 17.6335 56.8144 17.6335Z" fill="#0F3A5D"/>
<path d="M26.8865 38.2871C27.4349 38.3655 27.9833 38.4047 28.5317 38.5223C28.6101 38.5614 28.6884 38.8358 28.7276 38.9925C28.5709 38.9925 28.4142 39.0317 28.2183 38.9925C28.0225 38.9925 27.8266 38.9534 27.6699 38.875C27.3565 38.7966 27.0823 38.679 26.8081 38.6006C26.8473 38.4831 26.8865 38.3655 26.8865 38.2871Z" fill="#0F3A5D"/>
<path d="M25.593 8.77637C25.9064 9.0507 26.1022 9.24666 26.3373 9.44262C26.2589 9.75614 26.2589 9.75614 24.6528 9.48181C25.0054 9.20747 25.2796 8.97232 25.593 8.77637Z" fill="#0F3A5D"/>
<path d="M68.7231 32.1341C69.8983 31.5854 70.1334 32.7611 70.8385 32.9571C69.8983 33.2706 69.5066 32.4084 68.7231 32.1341Z" fill="#0F3A5D"/>
<path d="M29.4324 15.0469C29.7849 15.0861 30.0983 15.1253 30.5292 15.2036C29.8633 16.2618 29.8633 16.2618 28.9623 15.7523C29.354 15.7131 29.6282 15.6347 30.02 15.5955C29.7458 15.478 29.5891 15.3996 29.3932 15.3212C29.3932 15.2428 29.4324 15.1253 29.4324 15.0469Z" fill="#0F3A5D"/>
<path d="M69.3501 9.99126C69.3893 10.1872 69.3893 10.3832 69.4285 10.7751C68.7625 10.4616 68.2141 10.1872 67.6656 9.91288C67.7048 9.8345 67.7048 9.75612 67.744 9.67773C68.2533 9.79531 68.7625 9.91288 69.3501 9.99126Z" fill="#0F3A5D"/>
<path d="M71.5047 11.4023C70.9171 11.8726 70.4078 11.9901 69.8986 11.2063C70.4862 11.2063 70.9954 10.736 71.5047 11.4023Z" fill="#0F3A5D"/>
<path d="M30.1378 7.63989C30.0595 7.83585 30.0203 7.99261 29.9419 8.22776C29.7853 8.11018 29.6286 7.99261 29.3935 7.83585C29.2368 8.07099 29.041 8.34533 28.8451 8.61967C29.0018 7.63989 29.0018 7.63989 30.1378 7.63989Z" fill="#0F3A5D"/>
<path d="M61.5545 23.6689C61.8287 23.9825 61.9854 24.1784 62.2596 24.4528C61.8287 24.492 61.4762 24.5703 60.9669 24.6095C61.202 24.2176 61.3587 23.9825 61.5545 23.6689Z" fill="#0F3A5D"/>
<path d="M28.3749 9.24661C27.8264 9.44256 27.3172 9.67771 26.7688 9.87366C26.7296 9.75609 26.6904 9.63852 26.6512 9.52094C27.1997 9.36418 27.7481 9.20742 28.3357 9.08984C28.3357 9.12903 28.3749 9.16823 28.3749 9.24661Z" fill="#0F3A5D"/>
<path d="M61.2409 17.4377C61.1626 17.1242 61.1234 16.889 61.045 16.6147C61.2801 16.6147 61.5543 16.5363 61.6326 16.6147C61.7502 16.7322 61.8285 17.0066 61.7502 17.1633C61.7502 17.2809 61.476 17.3201 61.2409 17.4377Z" fill="#0F3A5D"/>
</svg>
