<svg width="400" height="92" viewBox="0 0 400 92" fill="none" xmlns="http://www.w3.org/2000/svg">
<path d="M148.298 55.3688C148.453 55.3688 148.453 55.4459 148.453 55.523C148.453 55.6773 148.375 55.7544 148.22 55.7544H146.673V53.5178C146.673 54.1348 146.827 54.5976 147.214 54.8289C147.601 55.2145 147.911 55.3688 148.298 55.3688ZM148.298 27.2188C147.911 27.2188 147.601 27.2959 147.214 27.6044C146.827 27.8358 146.673 28.2985 146.673 28.9155V26.679H148.22C148.375 26.679 148.453 26.7561 148.453 26.9103C148.453 27.2188 148.375 27.2188 148.298 27.2188ZM119.122 55.3688C119.2 55.3688 119.277 55.4459 119.277 55.523C119.277 55.6773 119.2 55.7544 119.122 55.7544H117.574V53.5178C117.574 54.1348 117.729 54.5976 118.116 54.8289C118.426 55.2145 118.813 55.3688 119.122 55.3688ZM140.404 26.8332H146.75V55.8315H138.702H137.154C136.999 55.8315 136.999 55.7544 136.999 55.6002C136.999 55.4459 137.076 55.4459 137.154 55.4459C137.541 55.4459 137.85 55.3688 138.237 55.0603C138.624 54.8289 138.779 54.3662 138.779 53.7492V31.3835L129.337 55.9087H127.79H127.016L117.729 31.8462V55.9087H116.181H114.634C114.479 55.9087 114.479 55.8315 114.479 55.6773C114.479 55.523 114.556 55.523 114.634 55.523C115.021 55.523 115.33 55.4459 115.717 55.1374C116.104 54.906 116.259 54.4433 116.259 53.8263V28.607V29.1469C116.259 29.0698 116.259 28.9927 116.259 28.9155C116.259 28.8384 116.259 28.7613 116.259 28.6842H111.693C110.996 28.6842 110.377 28.7613 109.758 29.0698C109.139 29.3011 108.597 29.6868 108.133 30.1495C107.669 30.6122 107.359 31.1521 107.049 31.692C106.817 32.3089 106.662 32.9259 106.662 33.5429C106.662 34.1599 106.895 34.6998 107.127 35.3168C107.359 35.8566 107.746 36.3965 108.288 36.8592C108.752 37.322 109.294 37.5533 109.913 37.8618C110.532 38.0932 111.151 38.2474 111.848 38.2474C112.002 38.2474 112.08 38.2474 112.234 38.2474C112.389 38.2474 112.467 38.2474 112.621 38.2474C112.621 38.6331 112.544 38.9415 112.234 39.3272C112.002 39.7128 111.693 39.9441 111.306 40.2526C110.919 40.484 110.532 40.7154 110.068 40.8696C109.603 41.0239 109.062 41.0239 108.675 41.0239C107.669 41.0239 106.74 40.8696 105.889 40.5611C104.96 40.1755 104.263 39.7899 103.644 39.25C103.025 38.5559 102.483 37.9389 102.251 37.0906C101.864 36.3194 101.71 35.471 101.71 34.5455C101.71 33.4658 101.864 32.4632 102.329 31.6148C102.793 30.6894 103.412 29.9181 104.109 29.3011C104.805 28.6842 105.734 28.1443 106.74 27.7587C107.746 27.3731 108.829 27.2188 109.99 27.2188H114.866H116.414H117.342H124.617L131.969 46.114L139.243 27.2188H139.63H140.404V26.8332Z" fill="black"/>
<path d="M172.988 35.9336C172.988 36.0879 172.911 36.0879 172.756 36.0879H172.679C171.905 36.0879 171.286 36.7049 170.822 37.8617C169.274 41.6407 168.036 44.8799 166.952 47.3479C165.946 49.97 165.095 51.9753 164.476 53.5948C163.857 55.2144 163.315 56.4484 163.083 57.2968C162.696 58.068 162.541 58.7621 162.386 58.9935C162.309 59.3791 162.231 59.4562 162.231 59.4562C162.231 59.4562 162.231 59.3791 162.309 59.302C162.309 59.2248 162.309 59.2248 162.309 59.2248C162.309 59.2248 162.231 59.4562 162.077 59.8418C161.457 61.4614 160.761 62.6182 159.832 63.5437C159.058 64.315 157.898 64.7777 156.505 64.7777C155.731 64.7777 154.879 64.6235 154.26 64.315C153.564 64.0836 153.022 63.6209 152.48 63.1581C151.939 62.6182 151.552 62.0784 151.32 61.4614C151.087 60.8444 150.855 60.2274 150.778 59.4562C150.778 58.9935 150.778 58.5307 150.855 58.2222C150.933 57.7595 151.087 57.451 151.397 57.0654C151.629 56.6798 151.939 56.4484 152.326 56.2942C152.713 56.1399 153.022 56.0628 153.486 56.0628C153.719 56.0628 154.106 56.0628 154.415 56.1399C154.802 56.217 155.034 56.2942 155.344 56.5255C155.576 56.6026 155.808 56.7569 156.04 56.9883C156.195 57.1425 156.272 57.3739 156.272 57.5281C156.272 57.6824 156.272 57.7595 156.195 57.9137C155.808 58.2994 155.499 58.6078 155.189 58.9935C154.957 59.4562 154.725 59.9189 154.802 60.5359C154.802 60.9987 154.879 61.3072 155.034 61.6156C155.189 61.847 155.421 62.1555 155.653 62.3098C155.885 62.464 156.195 62.6954 156.427 62.7725C156.659 62.8496 156.969 62.9268 157.124 62.9268C157.743 62.9268 158.285 62.8496 158.671 62.5411C159.058 62.3098 159.368 62.0013 159.678 61.5385C159.91 61.1529 160.219 60.7673 160.374 60.2274C160.529 59.7647 160.761 59.2248 160.916 58.9163L152.48 38.016C151.939 36.8591 151.32 36.2421 150.546 36.2421H150.468C150.313 36.2421 150.313 36.165 150.313 36.0879C150.313 35.9336 150.391 35.9336 150.468 35.9336H151.629H158.594H162.386C162.464 35.9336 162.541 36.0107 162.618 36.0879C162.618 36.2421 162.541 36.3192 162.464 36.3192C162.386 36.3192 162.386 36.3192 162.309 36.3192C161.844 36.3192 161.535 36.3964 161.225 36.7049C160.993 36.9362 160.684 37.2447 160.529 37.7075C160.374 38.1702 160.297 38.7101 160.374 39.4042C160.374 40.0983 160.606 40.9466 160.916 41.795L164.243 51.0498L167.881 41.795C168.268 40.8695 168.5 40.0983 168.5 39.4042C168.577 38.7101 168.5 38.1702 168.422 37.7075C168.268 37.2447 168.036 36.9362 167.726 36.7049C167.339 36.5506 167.03 36.3192 166.643 36.3192C166.565 36.3192 166.488 36.3192 166.488 36.3192C166.333 36.3192 166.333 36.2421 166.333 36.0879C166.333 35.9336 166.41 35.9336 166.565 35.9336H173.066C172.911 35.7023 172.988 35.7794 172.988 35.9336Z" fill="black"/>
<path d="M207.191 27.5271C207.268 27.9127 207.345 28.1441 207.423 28.5297C207.5 28.9153 207.655 29.2238 207.81 29.6094C207.965 29.9951 208.042 30.3035 208.274 30.612C207.887 30.8434 207.345 31.229 206.726 31.6146C206.185 30.612 205.411 29.9179 204.018 29.4552C202.779 28.9925 201.232 28.8382 199.607 28.8382H198.059V53.6719C198.059 54.2889 198.214 54.7516 198.6 54.983C198.987 55.2143 199.297 55.3686 199.684 55.3686C199.761 55.3686 199.839 55.4457 199.839 55.5228C199.839 55.6771 199.761 55.7542 199.684 55.7542H198.136H190.088H188.54C188.385 55.7542 188.308 55.6771 188.308 55.5228C188.308 55.3686 188.385 55.3686 188.463 55.3686C188.849 55.3686 189.159 55.2915 189.546 54.983C189.933 54.7516 190.088 54.2889 190.088 53.6719V31.846C190.088 31.1519 190.32 30.612 190.862 30.0722L192.642 28.8382H189.082C188.308 28.8382 187.379 28.8382 186.683 28.9153C185.909 28.9925 185.135 29.1467 184.438 29.3781C183.742 29.5323 183.2 29.9179 182.658 30.3036C182.117 30.6892 181.73 31.0748 181.497 31.6146C181.265 31.4604 180.956 31.229 180.724 31.0748C180.491 30.9205 180.259 30.6892 180.027 30.612C180.182 30.3807 180.414 30.0722 180.491 29.6094C180.646 29.2238 180.724 28.9153 180.878 28.5297C181.033 28.1441 181.033 27.8356 181.111 27.5271C181.188 27.1415 181.188 26.9873 181.265 26.833H193.957H194.189H195.195H198.059H206.881C207.113 26.9873 207.191 27.2186 207.191 27.5271Z" fill="black"/>
<path d="M216.711 35.0083C217.253 35.0083 217.717 35.0854 218.104 35.3939C218.569 35.6253 219.033 35.9338 219.42 36.3194C219.807 36.705 220.116 37.0906 220.426 37.6305C220.658 38.1704 220.813 38.6331 220.813 39.2501C220.813 39.9442 220.658 40.5612 220.271 41.0239C219.884 41.4866 219.497 41.9494 218.956 42.1808C218.414 42.4121 217.872 42.7206 217.33 42.7977C216.789 42.8749 216.247 42.952 215.937 42.952C216.092 42.4121 216.17 41.7951 216.17 41.2553C216.17 40.6383 216.092 40.0984 216.015 39.5586C215.86 39.0187 215.628 38.6331 215.318 38.3246C214.931 37.939 214.622 37.7847 214.08 37.7847C213.616 37.7847 213.151 37.939 212.842 38.3246C212.378 38.7102 212.068 39.0958 211.681 39.7899C211.294 40.484 211.062 41.101 210.907 41.9494C210.752 42.7206 210.675 43.6461 210.675 44.5716V53.595C210.675 54.212 210.83 54.6747 211.217 54.9061C211.604 55.1375 211.913 55.3688 212.3 55.3688C212.378 55.3688 212.455 55.446 212.455 55.5231C212.455 55.6773 212.378 55.6773 212.3 55.6773H210.598H203.633H202.085C201.93 55.6773 201.93 55.6002 201.93 55.5231C201.93 55.3688 202.007 55.3688 202.085 55.3688C202.472 55.3688 202.781 55.2146 203.168 54.9061C203.555 54.6747 203.71 54.212 203.71 53.595V37.7847C203.71 37.1677 203.555 36.705 203.168 36.4736C202.781 36.2423 202.472 36.0109 202.085 36.0109C202.007 36.0109 201.93 35.9338 201.93 35.8567C201.93 35.7024 202.007 35.7024 202.085 35.7024H203.633H208.044C208.74 35.7024 209.359 35.9338 209.824 36.4736C210.365 37.0135 210.598 37.6305 210.598 38.3246V39.3272C210.83 38.7873 211.139 38.3246 211.604 37.7847C211.991 37.2449 212.378 36.7821 212.919 36.4736C213.461 36.088 214.003 35.7795 214.699 35.471C215.086 35.2397 215.86 35.0083 216.711 35.0083Z" fill="black"/>
<path d="M232.343 54.2119C232.885 54.2119 233.271 53.9806 233.581 53.5178C233.968 53.0551 234.2 52.4381 234.51 51.6669C234.664 50.8956 234.897 49.9702 234.974 48.9676C235.051 47.965 235.051 46.8852 235.051 45.7284C235.051 44.6487 235.051 43.5689 234.974 42.4892C234.897 41.4866 234.819 40.484 234.587 39.7899C234.432 39.0187 234.123 38.3246 233.813 37.9389C233.504 37.5533 233.039 37.2448 232.42 37.2448C231.956 37.2448 231.492 37.4762 231.182 37.9389C230.795 38.4017 230.485 39.0187 230.176 39.7899C229.944 40.5611 229.712 41.4866 229.557 42.4892C229.402 43.4918 229.402 44.5715 229.402 45.7284C229.402 46.8081 229.479 47.8878 229.557 48.9676C229.712 49.9702 229.944 50.9728 230.176 51.6669C230.408 52.4381 230.795 53.1322 231.182 53.5178C231.414 53.9806 231.801 54.2119 232.343 54.2119ZM243.487 36.088C243.1 36.088 242.79 36.2422 242.403 36.5507C242.016 36.7821 241.862 37.2448 241.862 37.8618V53.5178C241.862 54.1348 242.016 54.5976 242.403 54.8289C242.79 55.0603 243.1 55.2917 243.487 55.2917C243.564 55.2917 243.642 55.3688 243.642 55.4459C243.642 55.6002 243.564 55.6002 243.487 55.6002H241.939H237.683C237.064 55.6002 236.599 55.4459 236.135 55.0603C235.671 54.6747 235.361 54.2891 235.129 53.8263C234.51 54.4433 233.813 54.906 233.194 55.1374C232.498 55.3688 231.878 55.6002 231.259 55.6002C230.021 55.6002 228.86 55.4459 227.777 55.0603C226.693 54.6747 225.842 54.1348 224.991 53.4407C224.217 52.7466 223.675 51.744 223.211 50.6643C222.747 49.5074 222.592 48.1192 222.592 46.6539C222.592 44.9572 222.747 43.4147 223.211 42.1036C223.598 40.7925 224.217 39.5585 224.913 38.633C225.61 37.7076 226.539 36.9363 227.622 36.3965C228.706 35.8566 229.866 35.6252 231.182 35.6252C232.575 35.6252 233.968 36.1651 235.206 37.2448C235.361 36.7821 235.748 36.4736 236.212 36.088C236.677 35.8566 237.141 35.6252 237.605 35.6252H241.862H243.409C243.564 35.6252 243.564 35.7024 243.564 35.7795C243.719 36.0109 243.719 36.088 243.487 36.088Z" fill="black"/>
<path d="M268.177 35.9338C268.177 36.088 268.099 36.088 267.945 36.088H267.867C267.093 36.088 266.474 36.705 266.01 37.8618L260.206 52.4381L258.968 55.6773H258.271H257.497H255.175L247.901 37.7847C247.359 36.6279 246.74 36.0109 245.966 36.0109H245.889C245.734 36.0109 245.734 35.9338 245.734 35.8566C245.734 35.7024 245.811 35.7024 245.889 35.7024H247.05H257.807C257.884 35.7024 257.961 35.7795 258.039 35.8566C258.039 36.0109 257.961 36.088 257.884 36.088C257.807 36.088 257.807 36.088 257.729 36.088C257.265 36.088 256.955 36.1651 256.646 36.4736C256.259 36.6279 256.104 37.0135 255.949 37.4762C255.795 37.939 255.795 38.4788 255.795 39.1729C255.795 39.867 256.027 40.7154 256.414 41.5638L259.741 50.51L263.301 41.5638C263.688 40.6383 263.92 39.867 263.92 39.1729C263.998 38.4788 263.92 37.939 263.843 37.4762C263.688 37.0135 263.456 36.705 263.147 36.4736C262.76 36.3194 262.45 36.088 262.063 36.088C261.986 36.088 261.908 36.088 261.908 36.088C261.754 36.088 261.754 36.0109 261.754 35.8566C261.754 35.7024 261.831 35.7024 261.986 35.7024H268.486C268.099 35.7024 268.177 35.7795 268.177 35.9338Z" fill="black"/>
<path d="M274.443 47.1166C276.378 47.0395 277.848 46.5767 278.854 45.6513C279.861 44.7258 280.247 43.8003 280.247 42.4892C280.247 41.8722 280.247 41.2552 280.17 40.6383C280.093 40.0213 279.938 39.4814 279.706 38.9415C279.474 38.4017 279.241 38.0161 278.932 37.7076C278.545 37.322 278.158 37.2448 277.616 37.2448C277.152 37.2448 276.688 37.4762 276.378 37.9389C275.991 38.4017 275.682 39.0187 275.372 39.7899C275.062 40.5611 274.908 41.4866 274.753 42.4892C274.598 43.4918 274.598 44.5715 274.598 45.7284C274.598 45.9598 274.598 46.1911 274.598 46.4225C274.366 46.6539 274.366 46.9624 274.443 47.1166ZM285.587 42.5663C285.587 43.8774 285.2 44.9572 284.426 45.8055C283.653 46.5767 282.647 47.2709 281.563 47.6565C280.402 48.1192 279.241 48.3506 278.003 48.5819C276.765 48.7362 275.682 48.8133 274.753 48.8133C275.14 50.51 275.682 51.8211 276.533 52.7466C277.461 53.7492 278.468 54.2119 279.861 54.2119C280.867 54.2119 281.795 53.8263 282.569 53.2093C283.343 52.5924 283.885 51.6669 284.349 50.5871C284.426 50.3558 284.581 50.2015 284.891 50.4329C285.046 50.51 285.123 50.6643 285.046 50.9728C284.891 51.4355 284.659 51.8982 284.349 52.5152C284.117 53.0551 283.653 53.595 283.033 54.1348C282.492 54.6747 281.718 55.0603 280.789 55.3688C279.861 55.7544 278.7 55.9087 277.384 55.9087C275.836 55.9087 274.521 55.6773 273.282 55.2145C272.044 54.7518 271.038 54.0577 270.264 53.1322C269.49 52.2067 268.871 51.127 268.407 49.9702C267.943 48.7362 267.788 47.348 267.788 45.7284C267.788 44.1859 267.943 42.8748 268.407 41.6409C268.871 40.4069 269.49 39.3272 270.264 38.4017C271.038 37.4762 272.122 36.8592 273.282 36.3194C274.521 35.8566 275.914 35.6252 277.384 35.6252C278.622 35.6252 279.783 35.7795 280.789 36.1651C281.795 36.5507 282.647 37.0906 283.266 37.7076C283.962 38.3246 284.504 39.0187 284.891 39.867C285.355 40.7925 285.587 41.6409 285.587 42.5663Z" fill="black"/>
<path d="M297.58 55.3688C297.658 55.3688 297.735 55.4459 297.735 55.523C297.735 55.6773 297.658 55.6773 297.58 55.6773H296.032H289.067H287.52C287.365 55.6773 287.365 55.6002 287.365 55.523C287.365 55.3688 287.442 55.3688 287.52 55.3688C287.907 55.3688 288.216 55.2145 288.603 54.906C288.99 54.6747 289.145 54.2119 289.145 53.595V29.841C289.145 29.224 288.99 28.7613 288.603 28.5299C288.216 28.2985 287.907 28.0672 287.52 28.0672C287.442 28.0672 287.365 27.99 287.365 27.9129C287.365 27.8358 287.442 27.7587 287.52 27.7587H289.067C289.687 27.7587 290.306 27.6816 290.925 27.6044C291.621 27.5273 292.24 27.3731 292.859 27.2188C293.479 27.1417 294.098 26.9875 294.639 26.8332C295.181 26.7561 295.645 26.679 295.878 26.679V53.6721C295.878 54.2891 296.032 54.7518 296.419 54.9832C296.884 55.2917 297.193 55.3688 297.58 55.3688Z" fill="black"/>
<path d="M333.954 42.335C333.954 42.4892 333.876 42.4892 333.799 42.4892C333.412 42.4892 333.102 42.5664 332.793 42.8749C332.406 43.1062 332.251 43.4918 332.251 44.0317V53.4407C331.632 53.9035 330.858 54.3662 329.852 54.6747C329.078 55.0603 328.072 55.2917 326.911 55.4459C325.751 55.6773 324.435 55.8316 322.887 55.8316C320.565 55.8316 318.476 55.6002 316.619 54.9061C314.761 54.2891 313.136 53.3636 311.898 52.2839C310.582 51.127 309.576 49.6617 308.88 47.965C308.183 46.2683 307.796 44.2631 307.796 42.0265C307.796 39.7899 308.183 37.7076 308.88 35.9338C309.576 34.0828 310.582 32.4632 311.898 31.075C313.214 29.7639 314.761 28.6842 316.619 27.913C318.476 27.1417 320.565 26.7561 322.887 26.7561C324.203 26.7561 325.518 26.9104 326.757 27.2188C327.917 27.4502 329.001 27.913 329.852 28.3757C330.781 28.9156 331.477 29.5325 332.019 30.2266C332.561 30.9208 332.793 31.7691 332.793 32.6175C332.793 33.6972 332.406 34.6998 331.632 35.471C330.858 36.2423 329.852 36.6279 328.614 36.6279C328.459 36.6279 328.15 36.6279 327.917 36.5508C327.685 36.5508 327.376 36.4736 327.144 36.3965C326.911 36.3194 326.679 36.2423 326.524 36.0109C326.37 35.9338 326.292 35.7795 326.292 35.5482C326.292 35.3939 326.37 35.3168 326.447 35.0854C326.834 34.854 326.989 34.4684 327.066 34.0057C327.144 33.5429 327.221 33.0802 327.221 32.7717C327.221 31.692 326.989 30.7665 326.292 30.0724C325.673 29.3783 324.667 28.9927 323.351 28.9927C322.423 28.9927 321.572 29.2241 320.643 29.9182C319.714 30.5351 318.94 31.4606 318.244 32.5403C317.547 33.6201 317.006 34.9312 316.541 36.5508C316.077 38.1703 315.845 39.8671 315.845 41.718C315.845 43.7232 316 45.4199 316.386 46.8081C316.773 48.1964 317.315 49.5075 317.934 50.5101C318.553 51.5127 319.327 52.2068 320.179 52.7466C321.107 53.2094 321.958 53.4407 322.965 53.4407C323.429 53.4407 323.893 53.3636 324.203 53.2094C324.59 53.0551 324.822 52.8237 325.131 52.5924C325.364 52.361 325.596 52.0525 325.673 51.6669C325.751 51.4355 325.828 51.0499 325.828 50.7414V47.5022V47.0395C325.828 45.5742 325.673 44.6487 325.364 44.186C325.131 43.6461 324.667 43.4147 324.125 43.4147C323.738 43.4147 323.506 43.4918 323.197 43.569C322.965 43.7232 322.732 43.9546 322.578 44.1088C322.423 44.3402 322.345 44.5716 322.345 44.8801C322.268 45.1114 322.268 45.4199 322.268 45.6513C322.268 45.8055 322.268 45.8827 322.268 46.114C322.268 46.2683 322.268 46.3454 322.268 46.3454C322.268 46.8081 321.881 46.9624 321.262 46.9624C320.565 46.9624 319.869 46.8081 319.172 46.3454C318.476 45.8827 318.244 45.2657 318.244 44.5716C318.244 43.6461 318.631 42.952 319.25 42.4121C319.869 41.8723 320.565 41.6409 321.494 41.6409H325.751H329.852H332.251H333.799C333.876 42.0265 333.954 42.1036 333.954 42.335Z" fill="black"/>
<path d="M342.387 47.1166C344.322 47.0395 345.792 46.5767 346.798 45.6513C347.804 44.7258 348.191 43.8003 348.191 42.4892C348.191 41.8722 348.191 41.2552 348.114 40.6383C348.037 40.0213 347.882 39.4814 347.65 38.9415C347.417 38.4017 347.185 38.0161 346.876 37.7076C346.489 37.322 346.102 37.2448 345.56 37.2448C345.096 37.2448 344.631 37.4762 344.322 37.9389C344.012 38.4017 343.625 39.0187 343.316 39.7899C343.006 40.5611 342.851 41.4866 342.697 42.4892C342.542 43.4918 342.542 44.5715 342.542 45.7284C342.542 45.9598 342.542 46.1911 342.542 46.4225C342.387 46.6539 342.387 46.9624 342.387 47.1166ZM353.531 42.5663C353.531 43.8774 353.144 44.9572 352.37 45.8055C351.596 46.5767 350.59 47.2709 349.507 47.6565C348.346 48.1192 347.185 48.3506 345.947 48.5819C344.709 48.7362 343.625 48.8133 342.697 48.8133C343.084 50.51 343.625 51.8211 344.477 52.7466C345.405 53.6721 346.411 54.2119 347.804 54.2119C348.81 54.2119 349.739 53.8263 350.513 53.2093C351.287 52.5924 351.829 51.6669 352.293 50.5871C352.37 50.3558 352.525 50.2015 352.835 50.4329C352.989 50.51 353.067 50.6643 352.989 50.9728C352.835 51.4355 352.602 51.8982 352.293 52.5152C352.061 53.0551 351.596 53.595 350.977 54.1348C350.436 54.6747 349.662 55.0603 348.733 55.3688C347.804 55.7544 346.644 55.9087 345.328 55.9087C343.78 55.9087 342.465 55.6773 341.226 55.2145C339.988 54.7518 338.982 54.0577 338.208 53.1322C337.434 52.2067 336.815 51.127 336.351 49.9702C335.886 48.7362 335.732 47.348 335.732 45.7284C335.732 44.1859 335.886 42.8748 336.351 41.6409C336.815 40.4069 337.434 39.3272 338.208 38.4017C338.982 37.4762 340.065 36.8592 341.226 36.3194C342.465 35.8566 343.858 35.6252 345.328 35.6252C346.566 35.6252 347.727 35.7795 348.733 36.1651C349.739 36.5507 350.59 37.0906 351.209 37.7076C351.906 38.3246 352.448 39.0187 352.835 39.867C353.376 40.7925 353.531 41.6409 353.531 42.5663Z" fill="black"/>
<path d="M361.97 47.1166C363.905 47.0395 365.375 46.5767 366.381 45.6513C367.387 44.7258 367.774 43.8003 367.774 42.4892C367.774 41.8722 367.774 41.2552 367.697 40.6383C367.619 40.0213 367.465 39.4814 367.232 38.9415C367 38.4017 366.768 38.0161 366.459 37.7076C366.072 37.322 365.685 37.2448 365.143 37.2448C364.679 37.2448 364.214 37.4762 363.905 37.9389C363.595 38.4017 363.208 39.0187 362.899 39.7899C362.589 40.5611 362.434 41.4866 362.28 42.4892C362.125 43.4918 362.125 44.5715 362.125 45.7284C362.125 45.9598 362.125 46.1911 362.125 46.4225C361.97 46.6539 361.97 46.9624 361.97 47.1166ZM373.114 42.5663C373.114 43.8774 372.727 44.9572 371.953 45.8055C371.179 46.5767 370.173 47.2709 369.09 47.6565C367.929 48.1192 366.768 48.3506 365.53 48.5819C364.292 48.7362 363.208 48.8133 362.28 48.8133C362.667 50.51 363.208 51.8211 364.06 52.7466C364.988 53.6721 365.994 54.2119 367.387 54.2119C368.393 54.2119 369.322 53.8263 370.096 53.2093C370.87 52.5924 371.411 51.6669 371.876 50.5871C371.953 50.3558 372.108 50.2015 372.418 50.4329C372.572 50.51 372.65 50.6643 372.572 50.9728C372.418 51.4355 372.185 51.8982 371.876 52.5152C371.644 53.0551 371.179 53.595 370.56 54.1348C370.018 54.6747 369.245 55.0603 368.316 55.3688C367.387 55.7544 366.226 55.9087 364.911 55.9087C363.363 55.9087 362.047 55.6773 360.809 55.2145C359.571 54.7518 358.565 54.0577 357.791 53.1322C357.017 52.2067 356.398 51.127 355.934 49.9702C355.469 48.7362 355.315 47.348 355.315 45.7284C355.315 44.1859 355.469 42.8748 355.934 41.6409C356.398 40.4069 357.017 39.3272 357.791 38.4017C358.565 37.4762 359.648 36.8592 360.809 36.3194C362.047 35.8566 363.44 35.6252 364.911 35.6252C366.149 35.6252 367.31 35.7795 368.316 36.1651C369.322 36.5507 370.173 37.0906 370.792 37.7076C371.489 38.3246 372.031 39.0187 372.418 39.867C372.959 40.7925 373.114 41.6409 373.114 42.5663Z" fill="black"/>
<path d="M399.891 55.6771C399.968 55.8313 399.891 55.8313 399.736 55.8313H398.575H391.146H387.818C387.663 55.8313 387.586 55.7542 387.586 55.6771C387.509 55.5228 387.586 55.4457 387.741 55.5228H387.896C388.36 55.5228 388.592 55.4457 388.902 55.1372C389.134 54.983 389.366 54.5974 389.366 54.1346C389.366 53.6719 389.289 53.132 389.134 52.4379C388.902 51.7438 388.515 50.8954 387.896 50.0471L389.443 52.4379L385.961 45.4197L383.639 47.4249V53.749C383.639 54.366 383.794 54.8287 384.181 55.0601C384.568 55.2915 384.877 55.5228 385.264 55.5228C385.342 55.5228 385.419 55.6 385.419 55.6771C385.419 55.8313 385.342 55.8313 385.264 55.8313H383.717H376.752H375.204C375.049 55.8313 375.049 55.7542 375.049 55.6771C375.049 55.5228 375.126 55.5228 375.204 55.5228C375.591 55.5228 375.9 55.3686 376.287 55.0601C376.674 54.8287 376.829 54.366 376.829 53.749V29.9951C376.829 29.3781 376.674 28.9153 376.287 28.684C375.9 28.4526 375.591 28.2212 375.204 28.2212C375.126 28.2212 375.049 28.1441 375.049 28.067C375.049 27.9899 375.126 27.9127 375.204 27.9127H376.752C377.371 27.9127 377.99 27.8356 378.609 27.7585C379.228 27.6814 379.925 27.5271 380.544 27.3729C381.163 27.2186 381.782 27.1415 382.324 26.9873C382.865 26.833 383.33 26.833 383.562 26.833V45.8053L388.36 41.7949C389.443 40.8694 390.217 40.0211 390.682 39.4041C391.146 38.71 391.223 38.1701 391.146 37.7074C391.069 37.2446 390.759 36.9361 390.217 36.7048C389.753 36.5505 389.134 36.3192 388.515 36.3192H388.36C388.205 36.3192 388.205 36.242 388.205 36.1649C388.205 36.0107 388.283 36.0107 388.36 36.0107H388.824H395.325H397.182H398.343C398.498 36.0107 398.498 36.0878 398.421 36.1649C398.266 36.3192 398.188 36.3192 398.034 36.3192H397.956C397.337 36.3192 396.563 36.5505 395.712 37.0904L390.914 41.1779L398.034 54.8287C398.498 55.2915 399.04 55.5228 399.581 55.5228H399.659C399.659 55.3686 399.891 55.4457 399.891 55.6771Z" fill="black"/>
<path d="M0.522339 91.4303C1.81506 91.0384 3.10778 90.6465 4.40051 90.2154C8.63123 88.7653 13.0578 88.0598 17.4061 87.1193C17.8762 87.0017 18.0328 86.8057 18.0328 86.3746C18.0328 83.8272 18.0328 81.319 18.0328 78.7716C18.0328 78.2621 18.1895 77.9486 18.6204 77.6742C20.9709 76.3025 23.2821 74.9309 25.5933 73.5592C25.8284 73.4024 26.1026 73.2848 26.4551 73.0889C26.4551 77.3607 26.4551 81.5149 26.4551 85.7868C27.6303 85.63 28.688 85.4732 29.8632 85.3165C29.8632 85.0029 29.8632 84.6894 29.8632 84.3759C29.8632 79.2811 29.9024 74.1862 29.8632 69.0914C29.8632 68.4251 30.0591 68.1116 30.6467 67.8373C32.0178 67.171 33.3888 66.4656 34.7207 65.7602C34.9166 65.6818 35.1124 65.6034 35.3867 65.4858C35.3867 65.8385 35.4258 66.0737 35.3867 66.348C35.3083 66.8575 35.465 67.171 35.9351 67.4846C36.131 67.6413 36.2877 68.0332 36.2877 68.3076C36.3268 73.1673 36.2877 78.0269 36.2877 82.8474C36.2877 83.1218 36.2877 83.3569 36.2877 83.6313C36.9536 83.6705 36.9536 83.6705 36.9536 82.965C36.9536 80.1041 36.9536 77.2431 36.9536 74.343C36.9536 72.5402 36.9536 70.6982 36.9536 68.8954C36.9536 68.6603 36.9928 68.4251 36.9928 68.0724C37.7762 68.5819 38.4422 68.9738 39.069 69.4833C39.2257 69.6009 39.2257 69.9536 39.2257 70.1887C39.2257 74.0687 39.2257 77.9486 39.2257 81.7893C39.2257 82.0636 39.2257 82.338 39.2257 82.7299C39.6174 82.6515 39.8916 82.6123 40.2833 82.5339C40.2833 82.2204 40.2833 81.946 40.2833 81.6717C40.2833 74.4606 40.2833 67.2494 40.2833 59.9991C40.2833 59.372 40.4792 59.0585 41.0276 58.7841C42.0853 58.2747 43.0646 57.6476 44.1223 57.1381C44.5141 56.9422 44.7099 56.7462 44.6316 56.3151C44.6316 56.1975 44.6316 56.08 44.6316 55.9624C44.6316 54.5515 44.6316 54.5515 46.0418 54.3164C46.0418 53.4542 46.0418 52.5528 46.0418 51.573C46.7469 51.573 47.3737 51.573 48.0788 51.573C48.0788 52.396 48.0788 53.1798 48.0788 54.0812C48.4706 53.9245 48.7448 53.8069 49.1365 53.6501C49.1365 63.1735 49.1365 72.6578 49.1365 82.1812C49.7241 82.2596 50.2726 82.2988 50.8993 82.3771C50.8993 77.9878 50.8993 73.6375 50.8993 69.2482C51.5653 69.2482 52.1529 69.2482 52.7796 69.2482C52.7796 68.0332 52.7796 66.8575 52.7796 65.6426C53.3281 65.6034 53.7982 65.5642 54.3466 65.525C54.3466 64.6628 54.3466 63.8398 54.3466 62.9776C54.6208 62.8992 54.8167 62.86 55.0909 62.7816C55.0909 61.841 55.0909 60.9005 55.0909 59.9207C55.6785 59.9207 56.1486 59.9207 56.7753 59.9207C56.7753 60.7045 56.7362 61.4883 56.7753 62.2721C56.7753 62.4681 57.0104 62.7032 57.1279 62.8992C57.2062 63.056 57.3629 63.2127 57.3629 63.4087C57.4021 64.1141 57.3629 64.7804 57.3629 65.525C57.9505 65.5642 58.4598 65.5642 59.0474 65.6034C59.0474 66.8183 59.0474 67.9548 59.0474 69.1698C59.87 69.1698 60.6535 69.1698 61.4761 69.1698C61.4761 69.4441 61.4761 69.6793 61.4761 69.9144C61.4761 74.2254 61.4761 78.5364 61.4761 82.8083C61.4761 83.4745 61.5545 83.9056 62.3771 83.8664C62.6513 83.8664 62.9256 83.9448 63.3173 83.984C63.3173 82.338 63.3173 80.7703 63.3173 79.1635C67.1563 79.1635 70.8778 79.1635 74.6776 79.1635C74.6776 81.4366 74.6776 83.6705 74.6776 85.9435C76.2837 86.2963 77.8115 86.5706 79.3392 86.9625C81.9638 87.6287 84.5884 88.295 87.1739 89.0004C88.6625 89.3923 90.2686 89.6667 91.6788 90.4113C91.9139 90.5289 92.1489 90.6856 92.384 90.8032C92.5015 90.8816 92.619 90.96 92.7365 91.0384C92.8149 91.0776 92.9716 91.2343 93.0499 91.2343C62.2204 91.2343 31.391 91.2343 0.561512 91.2343C0.522339 91.5479 0.522339 91.5087 0.522339 91.4303ZM43.0255 59.2936C42.3595 59.372 42.3595 59.7639 42.3595 60.195C42.3595 69.6009 42.3595 79.0459 42.3595 88.4518C42.3595 88.6085 42.3204 88.8045 42.3595 88.9612C42.3987 89.0788 42.5554 89.2356 42.6729 89.2356C42.7904 89.2356 42.9471 89.0788 42.9863 88.9612C43.0255 88.7261 43.0255 88.4909 43.0255 88.2558C43.0255 79.477 43.0255 70.6982 43.0255 61.9586C43.0255 61.0964 43.0255 60.2342 43.0255 59.2936ZM23.8305 77.3999C23.2429 77.4783 23.2429 77.831 23.2429 78.2229C23.2429 80.5744 23.2429 82.965 23.2429 85.3165C23.2429 85.5908 23.2429 85.8652 23.2429 86.1395C23.3213 86.1787 23.3996 86.2179 23.4779 86.2179C23.5955 86.0219 23.7913 85.826 23.8305 85.5908C23.8697 84.8462 23.8305 84.0624 23.8305 83.3177C23.8305 81.3974 23.8305 79.3986 23.8305 77.3999Z" fill="#F26537"/>
<path d="M82.6691 66.0343C87.3699 59.0583 88.3492 51.1417 88.2709 42.9116C86.6648 43.9698 85.2937 45.2239 83.5701 45.655C82.2774 43.3819 81.0238 41.1872 79.6919 38.9141C79.496 39.0709 79.3785 39.1493 79.2218 39.3061C79.0651 39.1885 78.9084 39.0317 78.5559 38.7182C78.5559 39.1101 78.4775 39.3452 78.5559 39.5412C79.5744 41.6967 80.6321 43.8522 82.199 45.655C82.2382 45.6942 82.2774 45.7334 82.2774 45.7726C82.9825 47.3402 84.236 46.9875 85.4896 46.7132C85.7246 46.674 85.9597 46.5956 86.273 46.478C86.038 47.8105 85.6071 48.947 84.7845 49.8484C84.236 50.4363 83.6093 50.985 83.0608 51.5337C81.8073 52.7486 81.063 54.1595 81.4155 55.9622C81.5331 56.5109 81.4547 57.0596 81.4547 57.6083C81.4155 58.8232 80.7888 59.6462 79.6527 60.1165C79.3785 60.2341 79.0651 60.7044 79.1043 60.9787C79.2218 61.8409 78.7126 62.3112 78.2425 62.8207C78.0466 63.0558 77.9291 63.3693 77.8116 63.6437C77.7724 63.7613 77.8116 63.918 77.7332 63.9964C77.1065 64.741 76.4797 65.564 75.7746 66.2303C74.9519 67.0533 73.8551 66.8182 72.8366 66.8182C72.719 66.8182 72.5624 66.6614 72.484 66.5438C72.0923 65.76 71.7397 64.937 71.3871 64.1532C70.7212 62.5463 69.9769 60.9395 69.4285 59.2543C69.2718 58.7448 69.3893 58.0002 69.6243 57.4907C69.9377 56.8244 70.0553 56.2758 69.8594 55.5703C69.5852 54.473 69.311 53.4932 68.3316 52.7486C67.7049 52.2783 67.6657 51.5337 67.9399 50.789C68.0574 50.5147 68.1749 50.2012 68.1749 49.8876C68.1749 49.2606 67.8224 48.947 67.1564 48.9862C66.6863 49.0254 66.2946 49.0254 66.0204 48.4768C65.8245 48.0456 64.8452 48.0065 64.2184 48.32C63.5133 48.6727 63.5133 48.6727 62.8865 48.0848C62.1814 48.6727 61.3979 48.4768 60.6145 48.5159C59.1259 48.5943 58.4208 47.7321 57.6373 46.7915C57.0889 46.1253 56.5404 45.459 55.9528 44.8712C55.6786 44.5968 55.6394 44.3617 55.8353 44.009C56.2662 43.2643 56.658 42.5197 56.2662 41.5791C56.1487 41.2656 56.4229 40.7561 56.6188 40.4034C57.3239 39.2669 58.4991 38.6398 59.596 38.0127C60.066 37.7384 60.4186 37.4249 60.6928 36.9154C61.1629 36.0924 61.7897 35.3086 62.9649 35.3869C63.3174 35.3869 63.67 35.1126 64.0226 34.9167C64.3359 34.7207 64.5318 34.2896 65.0411 34.6423C65.1586 34.7207 65.472 34.6031 65.6678 34.6031C66.608 34.4856 67.5482 34.368 68.5667 34.2504C68.6058 34.9558 68.645 35.5829 68.6842 36.1316C69.781 36.6019 70.7995 37.0722 71.8181 37.5816C72.3665 37.8168 72.6799 37.7384 72.7974 37.1114C72.8757 36.5627 73.2283 36.4843 73.6984 36.6803C75.0695 37.3073 76.4797 37.5033 77.9683 37.3465C78.3992 37.3073 78.6342 37.1897 78.7517 36.7978C78.9868 36.1708 79.2218 35.5045 79.5352 34.7207C78.9476 34.6815 78.5167 34.6031 78.0858 34.5639C77.6157 34.5247 77.1848 34.4856 76.7147 34.4072C76.6756 34.4072 76.6756 34.368 76.6364 34.368C75.0303 34.7599 74.7561 33.3098 74.0118 32.4868C73.0716 32.8395 72.9933 33.3098 73.7376 34.2896C73.2283 34.4464 72.9149 34.2896 72.6015 33.9369C72.5624 33.8977 72.5232 33.8585 72.5232 33.8193C72.249 32.7612 71.6222 31.9773 70.4078 31.4678C71.583 30.88 71.7005 29.9394 71.9356 28.9988C71.9748 28.842 72.0531 28.6069 72.2098 28.5677C73.3066 28.019 74.4427 27.5096 75.6571 26.9609C75.9704 28.019 76.2447 28.9988 76.5189 29.9786C76.558 30.0962 76.4797 30.2529 76.4013 30.3705C76.1663 30.88 76.323 31.3111 76.7147 31.6638C77.0673 32.0165 77.4199 32.1341 77.9291 31.8598C78.2817 31.703 78.7518 31.7814 79.1827 31.7422C79.3785 31.7422 79.5744 31.7422 79.7311 31.6638C80.6712 31.3111 81.4547 30.1354 81.4547 29.1164C81.4547 27.9407 81.4547 26.7649 81.6114 25.5108C81.8073 25.8635 82.0423 26.2162 82.2382 26.569C84.3144 30.1745 85.6854 34.0545 86.3122 38.2087C86.3514 38.4438 86.2339 38.7182 86.1947 38.9533C85.9988 38.7966 85.7638 38.6398 85.5679 38.4438C85.2937 38.1695 85.0587 37.856 84.7453 37.5033C84.1577 37.856 84.1577 38.2087 84.5102 38.679C84.7845 39.0317 85.0195 39.3844 85.2154 39.7763C85.6463 40.5994 85.9988 40.6777 86.7823 40.2074C87.0173 40.0899 87.3699 40.1683 87.7616 40.1683C87.1349 33.9761 84.902 28.2542 81.6114 22.9242C81.7289 22.8066 81.8464 22.7282 81.9248 22.6891C82.199 22.5323 82.5124 22.3755 82.9433 22.1404C83.6876 23.4729 84.4711 24.8054 85.137 26.1379C87.7225 31.2719 89.1327 36.6803 89.4853 42.4021C89.877 48.8295 89.1719 55.1392 86.7431 61.1746C84.236 67.3668 80.162 72.4617 74.7952 76.42C74.6777 76.4983 74.521 76.5767 74.3643 76.6551C74.3252 76.6159 74.286 76.6159 74.286 76.5767C73.6984 75.0091 73.6984 75.0091 75.1086 74.0293C75.422 73.7942 75.7354 73.559 76.1271 73.2455" fill="#0F3A5D"/>
<path d="M78.5951 15.2037C78.1642 15.5173 77.8117 15.7916 77.4199 16.0659C67.3524 5.13165 54.8952 0.507103 40.2052 1.8396C29.8242 2.78018 21.7154 7.60068 16.5836 12.6955C17.2888 13.3226 18.1114 13.4401 18.7773 12.8523C19.4825 12.2644 20.3443 12.3428 21.0886 12.2252C21.5195 12.1468 22.0679 12.5779 22.6163 12.8131C22.6163 12.8915 22.6555 13.0874 22.6947 13.2442C23.7132 13.5969 24.6925 13.6753 25.6719 13.401C25.8677 13.3618 26.1419 13.5577 26.377 13.5969C26.5729 13.6361 26.7687 13.7537 26.9254 13.7145C27.4347 13.5577 27.9439 13.3618 28.4924 12.9699C28.2573 12.8915 28.0614 12.7739 27.7872 12.6955C28.0614 12.4996 28.3357 12.2644 28.5707 12.0685C28.4532 11.5982 28.1006 11.0495 28.2573 10.8535C28.6882 10.3049 29.4325 10.5008 30.1376 10.6576C29.6284 11.2454 29.8242 12.2252 28.9624 12.7739C28.9233 13.2442 29.1583 13.7145 29.9809 13.6361C30.4118 12.7739 31.2737 13.205 31.9396 12.9699C31.9788 13.0482 32.018 13.0874 32.0571 13.1658C31.587 13.5185 31.1561 13.9888 30.6077 14.1848C28.6882 14.851 27.1605 16.0659 25.5152 17.1633C25.0059 17.516 24.6534 18.0647 24.1833 18.5742C25.2018 19.3972 26.0636 20.2986 27.3955 20.2202C27.3955 20.8472 27.3171 21.3567 27.4347 21.7878C27.4738 21.9446 28.0614 21.9446 28.4532 22.023C28.4924 21.7486 28.5315 21.5527 28.5315 21.3959C28.6099 20.6513 28.8057 19.985 29.7067 19.8283C30.0593 19.7499 30.216 19.5148 30.2552 19.0837C30.2943 18.2998 30.5685 17.516 30.8036 16.7714C30.8428 16.6538 31.2737 16.5754 31.5087 16.5754C31.8613 16.5754 32.2138 16.693 32.5664 16.693C33.0756 16.693 33.3107 16.889 33.389 17.3592C33.5849 18.8877 34.055 19.0837 35.3085 18.2606C35.6611 18.0255 36.0136 18.0647 36.0528 18.535C36.092 19.7499 36.8363 20.4945 37.5806 21.2783C38.0115 21.7095 37.9331 22.4149 37.3847 22.5717C36.4054 22.846 35.426 23.0419 34.3292 22.9636C33.0756 22.8852 31.7437 23.2771 30.9211 24.5312C31.1561 24.4528 31.4304 24.3744 31.6654 24.2961C32.1747 24.1393 32.7231 23.9825 33.2323 23.865C33.389 23.8258 33.5849 23.9825 33.7808 24.0609C33.6632 24.1785 33.5849 24.3353 33.4282 24.4528C33.3499 24.5312 33.2323 24.6096 33.154 24.6488C33.5065 25.511 33.5849 25.511 35.4652 25.3542C35.4652 25.4326 35.5044 25.4718 35.5044 25.5502C34.8776 25.7069 34.29 25.8245 33.6632 25.9813C33.389 26.0597 33.0756 26.138 32.8014 26.2164C32.6839 26.2556 32.5272 26.2164 32.3705 26.2556C32.4097 26.0988 32.4489 25.9813 32.5272 25.7853C32.0963 25.5894 31.7829 25.7069 31.2737 25.9813C30.4118 26.4516 29.6284 27.0394 28.8057 27.5881C27.8656 28.2152 26.9646 28.7246 26.612 29.8612C26.5337 30.0571 26.4162 30.2531 26.2595 30.4099C25.5152 30.9585 24.7709 31.5072 24.0266 32.0559C23.8307 32.2126 23.674 32.4478 23.6348 32.6438C23.5957 32.9573 23.674 33.31 23.7524 33.6235C23.9091 34.2898 23.8307 34.8384 23.3215 35.4263C23.0864 34.8384 22.8122 34.329 22.6555 33.7803C22.303 32.6046 21.2844 32.1735 20.2268 32.7613C19.7567 32.9965 19.4041 33.1532 18.8557 32.8789C17.798 32.4086 16.2311 33.2316 15.8785 34.3682C15.6826 35.0344 15.4084 35.6615 15.2517 36.3277C15.0559 37.3467 15.6043 38.3264 16.4269 38.6008C17.3671 38.9143 18.1897 38.444 18.464 37.3467C18.934 37.3467 19.4041 37.3467 20.0309 37.3467C19.7959 37.817 19.6 38.2089 19.4433 38.6008C19.0907 39.3846 19.2866 39.6589 20.1484 39.6589C21.2453 39.6198 21.7937 40.3252 21.4803 41.3833C21.402 41.6969 21.3236 42.0496 21.3236 42.3631C21.3236 42.951 21.6762 43.3429 22.2638 43.3037C22.9297 43.2645 22.773 43.578 22.6555 43.97C21.6762 43.97 21.0102 43.3429 20.4226 42.7158C20.3835 42.6767 20.3051 42.5983 20.3051 42.5591C20.1092 41.0698 18.934 40.9914 17.798 40.7955C17.6413 40.7563 17.4846 40.7563 17.4063 40.6779C16.897 40.0117 16.1527 40.0509 15.4084 39.8941C14.1157 39.6198 12.9797 39.0319 12.0395 38.0913C11.8045 37.8562 11.6086 37.6994 11.8437 37.2291C12.157 36.6412 11.8045 36.0926 11.3736 35.7006C10.3942 34.7993 10.0417 33.5451 9.53242 32.3694C9.37573 31.9775 9.4149 31.5072 9.21904 31.0761C8.70978 31.8991 8.86648 32.7221 9.14069 33.5451C9.45408 34.4073 9.76746 35.2695 9.4149 36.3277C9.25821 36.1317 9.14069 36.0142 9.06234 35.8574C8.78813 35.1912 8.55309 34.5249 8.27887 33.8587C8.2397 33.7803 8.20053 33.7019 8.20053 33.6235C8.20053 32.8005 8.27888 31.9775 8.2397 31.1545C8.2397 30.841 8.12218 30.4491 7.92631 30.2531C7.14285 29.5477 7.0645 28.6463 7.22119 27.7057C7.49541 26.138 8.43557 24.9231 9.25821 23.6298C9.5716 23.1595 9.76746 22.5717 9.96333 22.023C10.2767 21.1608 10.5509 20.2986 10.8251 19.4364C10.8643 19.2796 10.8643 19.1228 10.7468 18.8877C10.1984 19.6323 9.5716 20.377 9.06234 21.1608C3.69559 29.1166 1.18849 37.8562 1.58022 47.4188C1.77609 52.2393 2.75543 56.903 4.36153 61.41C4.40071 61.4883 4.40071 61.5275 4.43988 61.6059C4.87079 62.86 4.87079 62.86 3.49972 63.6047C2.95129 61.9195 2.36369 60.2734 1.85444 58.549C0.561715 54.0029 -0.104232 49.3391 0.0132879 44.597C0.209155 35.5047 2.91212 27.2354 8.12218 19.7891C11.922 14.3415 16.5445 9.717 22.2246 6.1898C28.6882 2.34908 35.5436 0.311148 42.9865 0.0368104C51.1737 -0.276718 58.9301 1.4085 66.1772 5.24922C70.7213 7.67906 74.717 10.8535 78.2034 14.6551C78.3209 14.8118 78.4384 15.0078 78.5951 15.2037ZM22.773 24.6488C23.2431 24.7272 23.6348 24.8839 23.9874 24.8839C24.4575 24.8839 24.6925 24.9623 24.4967 25.511C24.4575 25.6286 24.3791 25.7853 24.3791 25.9029C24.3791 26.0988 24.4575 26.2948 24.5358 26.4908C24.6925 26.4124 24.8884 26.334 25.0451 26.2556C25.3193 26.138 25.5935 26.0205 25.8677 25.9029C25.9069 26.1772 25.9461 26.4124 26.0244 26.8043C26.5337 26.6083 27.1213 26.334 27.7089 26.0988C27.7089 26.0205 27.7089 25.9421 27.6697 25.8637C27.278 25.9029 26.8862 25.9029 26.4945 25.9421C26.5729 25.4326 26.4945 25.0407 25.8677 25.0015C25.7502 25.0015 25.6327 24.8447 25.5935 24.7664C24.8884 23.5122 23.7915 23.3947 22.773 24.6488Z" fill="#0F3A5D"/>
<path d="M80.7496 20.9256C80.3187 21.1216 80.162 21.3567 80.1228 21.827C80.0444 24.0217 79.9269 26.2164 79.8486 28.4111C79.8094 29.0381 79.6135 29.2733 78.5167 29.9395C77.8507 27.9408 77.1456 25.9812 76.4405 23.9041C75.657 24.296 74.9127 24.6096 74.2076 24.9623C73.2283 25.4326 72.2489 25.9812 71.2696 26.4123C70.7995 26.6083 70.6037 26.9218 70.5253 27.4313C70.4078 28.1367 70.4861 28.999 69.4676 29.3517C69.2326 28.8422 69.0367 28.2935 68.7625 27.7056C68.0574 28.1759 67.4306 28.6462 66.7647 29.0773C59.7918 33.8194 53.0148 38.7967 46.4337 44.0875C40.7927 48.6337 35.896 53.9244 31.822 59.9207C31.5478 60.3126 31.2736 60.7437 30.9602 61.2532C29.9808 60.2342 29.0407 59.2936 27.4346 59.176C27.9047 58.6274 28.218 58.2355 28.5706 57.8044C35.2693 50.0445 42.9864 43.4604 51.487 37.8169C56.9321 34.2114 62.3381 30.5274 67.7832 26.8826C67.8615 26.8043 67.979 26.7259 68.1357 26.6083C66.9997 25.5109 65.8637 24.4528 64.7276 23.3554C64.7668 23.2379 64.806 23.1203 64.8452 23.0419C65.3544 23.0811 65.8637 23.0027 66.3338 23.1203C67.3131 23.4338 68.2533 23.8649 69.1934 24.2176C69.3893 24.296 69.7027 24.3352 69.8594 24.2176C71.1521 23.2379 72.4448 22.1797 73.855 21.0824C71.7397 20.1026 69.7027 19.2012 67.7048 18.2606C68.8409 17.8687 69.8202 17.2416 71.0737 17.516C72.8757 17.9471 74.7169 18.2606 76.558 18.5741C76.9106 18.6525 77.3807 18.5349 77.694 18.339C79.0651 17.4768 80.3578 16.5754 81.6897 15.674C82.4732 15.1253 83.335 14.7334 84.3143 14.9294C85.0195 15.0469 85.7638 15.2037 86.3905 15.5172C86.8606 15.7132 86.8998 16.2619 86.5472 16.693C86.2338 17.0849 85.8029 17.3592 85.4504 17.7119L80.7496 20.9256ZM85.0586 15.7132C85.0195 15.6348 85.0195 15.5564 84.9803 15.478C84.1185 15.1253 82.8649 15.7132 82.5907 16.8105C83.4917 16.4186 84.2752 16.0659 85.0586 15.7132Z" fill="#F26537"/>
<path d="M8.08289 60.195C11.0992 59.6463 13.0971 61.0964 14.1156 64.7803C14.4682 63.9965 14.7424 63.2519 15.1341 62.5465C15.9567 61.0572 16.9753 59.8423 18.7772 59.6463C19.8741 59.5287 20.8534 59.8031 21.7544 60.5477C19.3257 61.3707 17.4062 62.8208 15.8784 64.8195C17.8371 63.7614 19.7957 62.8208 22.0286 63.8398C23.3213 64.4276 24.144 65.4074 24.7316 66.7007C21.7152 66.348 18.7381 65.8385 15.7609 66.4656C17.4453 66.7791 19.0123 67.3669 20.1875 68.6603C21.4018 69.9927 21.7544 71.5996 21.7544 73.4416C19.5215 71.678 17.367 69.9536 15.2124 68.2292C15.1341 68.2683 15.0949 68.3075 15.0166 68.3859C16.1526 69.9536 16.3876 71.678 15.8784 73.4807C15.5258 74.7741 14.8599 75.9106 13.763 76.9687C13.6455 74.0686 13.4888 71.2861 13.3713 68.5035C13.293 68.5035 13.2538 68.4643 13.1754 68.4643C12.0394 71.3252 11.1776 74.2646 10.5116 77.2431C9.84569 80.3 9.689 83.3569 10.0416 86.6097C9.17974 86.1395 8.43545 85.7867 7.73033 85.3556C7.61281 85.2773 7.57364 84.9245 7.57364 84.6894C7.65198 80.4959 8.5138 76.4593 10.3549 72.6577C11.0992 71.1293 11.8827 69.64 12.7053 67.994C9.84569 69.3265 7.3386 71.0509 4.71398 72.6577C4.75315 69.9927 6.63347 67.2494 11.491 66.5831C11.491 66.5047 11.5301 66.4656 11.5301 66.3872C9.14057 66.0344 6.75099 65.7209 4.2439 65.329C5.4191 64.2317 6.5943 63.5262 8.08289 63.487C9.57148 63.4478 10.7467 64.2317 11.8827 65.0939C11.9611 65.0155 12.0002 64.9763 12.0786 64.8979C11.4126 64.1141 10.7467 63.2911 10.0807 62.5073C9.49313 61.6842 8.74884 60.9396 8.08289 60.195Z" fill="#F26537"/>
<path d="M27.1209 55.2961C27.0034 54.669 26.3374 54.473 25.7106 54.1595C25.4364 54.0419 25.1622 53.846 24.9663 53.6108C24.5354 53.023 24.1045 52.4351 23.7128 51.808C23.2427 51.0242 22.6159 50.2012 22.5376 49.3782C22.4592 48.6336 22.851 47.693 23.3602 47.0659C23.987 46.3605 23.987 45.5767 24.1437 44.7537C24.1829 44.6361 23.9478 44.4401 23.8303 44.3226C23.6345 44.1266 23.3994 43.9307 23.1644 43.7347C23.3211 43.5387 23.4778 43.382 23.5953 43.2252C24.5354 44.2442 24.7705 42.9901 25.3189 42.7157C25.7498 42.4806 26.2199 42.3238 26.6508 42.1671C26.9642 42.0495 27.3168 41.9319 27.6301 41.8535C27.7868 41.8143 28.0219 41.7751 28.1394 41.8143C29.0012 42.3238 29.863 42.3238 30.6073 41.7751C31.4691 42.5198 32.3309 43.2644 33.1928 43.9698C33.3495 44.0874 33.6237 44.0482 33.8587 44.009C35.5432 43.7739 36.3266 44.4793 36.2875 46.1645C36.2875 46.3213 36.1699 46.4781 36.0916 46.5956C33.1536 49.4958 30.0981 52.3959 27.1209 55.2961Z" fill="#0F3A5D"/>
<path d="M41.4583 11.0886C41.3799 11.0495 41.1841 10.9319 40.949 10.8143C41.0274 10.6575 41.1057 10.5008 41.1449 10.3832C41.3799 9.87373 41.1449 9.32505 40.5573 9.28586C39.7738 9.20748 38.9512 9.24667 38.1677 9.20748C37.8543 9.20748 37.5409 9.16829 37.0709 9.08991C37.3451 8.85476 37.4626 8.73719 37.7368 8.50204C37.3842 8.50204 37.1492 8.50204 36.9142 8.50204C36.875 8.46285 36.875 8.42366 36.8358 8.38447C36.9925 8.26689 37.1492 8.11013 37.3451 8.03175C37.9327 7.67903 38.5594 7.24793 39.1862 6.9344C39.5388 6.73844 40.0089 6.69925 40.4006 6.58168C41.3016 6.26815 42.2417 5.95462 43.1427 5.6411C43.1819 5.6411 43.2603 5.6019 43.2603 5.6411C44.0046 6.0722 44.7488 5.6411 45.4931 5.6411C45.8457 5.6411 46.1983 5.44514 46.5508 5.36676C47.8435 5.01404 49.0971 4.62213 50.3898 5.48433C50.0764 5.52352 49.763 5.56271 49.4888 5.6019C50.5857 6.46411 51.9176 5.56271 53.132 6.26815C52.466 6.42492 51.9176 6.54249 51.33 6.69925C51.6434 7.20874 52.231 7.28712 52.8969 6.9344C53.4062 6.66006 53.9154 6.38573 54.5814 6.81683C54.2288 6.89521 53.9938 6.97359 53.7196 7.05197C52.5835 7.3655 52.6227 8.42366 52.3093 9.24667C52.1918 9.52101 52.0743 9.83454 51.9568 10.1089C51.8784 10.3832 51.8001 10.6575 51.6434 10.8927C51.4867 11.2062 51.3691 11.5589 51.1733 11.8725C51.0558 12.1076 50.8991 12.4211 50.664 12.5387C49.2146 13.3225 47.726 14.1064 46.2766 14.8902C45.3364 15.3605 44.6313 15.9875 44.4746 17.0849C44.3963 17.4768 44.1612 17.6336 43.7303 17.5944C41.85 17.516 41.1449 16.8889 40.9098 15.0861C40.8707 14.8902 40.7532 14.6942 40.7532 14.4591C40.7532 14.2631 40.7923 13.8712 40.9098 13.832C41.5366 13.5969 41.4975 13.1658 41.4191 12.6563C41.4191 12.186 41.4583 11.7157 41.4583 11.0886Z" fill="#0F3A5D"/>
<path d="M64.6104 14.3416C64.8846 14.0672 65.1588 13.7537 65.5114 13.401C65.198 13.1658 64.963 13.0091 64.6496 12.7739C64.3362 13.1658 63.9836 13.4794 63.7486 13.8713C63.6311 14.0672 63.7094 14.4199 63.7878 14.6159C64.2578 15.7133 64.0228 16.4187 62.8868 16.8106C62.7301 16.8498 62.4167 16.693 62.2992 16.5363C62.1033 16.3011 61.9858 15.9484 61.7899 15.6349C61.3982 15.7916 61.0456 15.9484 60.6931 16.1052C60.458 15.7524 60.0663 15.3997 60.0663 15.0078C60.0663 14.5767 60.2621 13.9497 60.5755 13.7929C61.2807 13.3618 61.9466 12.9699 62.1816 12.1077C62.2208 11.9117 62.495 11.7941 62.6517 11.6374C62.8084 11.5198 63.0043 11.3239 63.2001 11.2847C63.8269 11.1279 64.4537 10.8928 65.0413 10.9711C66.1773 11.1279 67.2742 11.5198 68.4494 11.8333C68.3319 12.1469 68.2535 12.382 68.1752 12.6172C67.8226 12.4996 67.5484 12.4212 67.1567 12.3036C67.7834 13.5186 68.6061 12.9699 69.3112 12.9307C69.4287 12.6955 69.5854 12.4996 69.7421 12.2252C69.6246 12.1469 69.4679 12.0293 69.3112 11.8725C69.3504 11.7941 69.3504 11.755 69.3895 11.6766C69.6638 11.7941 70.0163 11.7941 70.2122 11.9901C70.6039 12.3428 70.9173 12.4604 71.2699 11.7941C71.3874 12.0685 71.4266 12.2252 71.5049 12.3428C71.6224 12.4996 71.8183 12.7347 72.0142 12.7347C72.9935 12.7739 73.1502 12.9699 72.7976 13.9888C73.9337 14.3024 73.5028 15.4781 73.9337 16.3403C73.2677 16.2227 72.5626 16.1052 71.8966 15.9484C70.4081 15.5957 68.9586 15.3997 67.47 16.0268C66.4907 16.4187 65.4722 17.9863 65.7464 18.9661C65.7856 19.1621 66.0598 19.3188 66.2557 19.4364C67.1175 19.8675 68.0185 20.2986 68.8803 20.7297C69.272 20.9257 69.6638 21.2 70.0555 21.4351C69.5462 22.023 69.1153 22.3365 68.3319 21.9838C67.3917 21.5919 66.4124 21.2784 65.3939 21.1216C64.8454 21.0432 64.2578 21.2392 63.7094 21.3568C63.5527 21.3959 63.396 21.396 63.2785 21.4351C62.9259 21.5527 62.495 21.5919 62.2208 21.8271C62.1033 21.9446 62.2208 22.3757 62.26 22.7284C62.0641 22.6501 61.7507 22.5325 61.4373 22.4933C60.8497 22.4149 59.8312 23.0028 59.5179 23.5123C59.4003 23.7474 59.1261 23.9042 58.9303 24.1001C58.8127 24.2177 58.6169 24.3353 58.5777 24.4529C58.3818 25.0407 57.755 25.5502 57.1283 25.5894C56.8541 25.5894 56.5407 25.6286 56.1881 25.6678C55.9922 25.5502 55.7572 25.3934 55.3263 25.1191C55.4046 24.492 55.4438 23.7474 55.6397 23.042C55.6789 22.846 56.1098 22.6893 56.384 22.6109C56.6974 22.5325 57.0891 22.6893 57.3633 22.6109C57.7159 22.4933 58.186 22.2582 58.2251 21.9838C58.3035 21.7095 57.9509 21.3568 57.755 21.004C57.7159 20.9257 57.5984 20.9257 57.4025 20.8081C58.3818 20.1026 59.322 19.4364 60.3405 18.731C60.2621 18.1431 60.6539 18.0255 61.2807 17.9471C62.4167 17.8296 63.5527 17.5944 64.6496 17.3201C65.0413 17.2417 65.3547 16.9282 65.7072 16.7322C65.3939 15.9876 65.3939 15.9876 66.334 15.243C65.7856 14.9294 64.7671 15.3997 64.6104 14.3416Z" fill="#0F3A5D"/>
<path d="M62.1421 26.0595C62.8081 25.6676 63.3957 25.3149 63.3173 24.2959C64.14 24.6486 64.5317 25.3149 65.1585 25.8635C64.8843 26.0595 64.6884 26.2163 64.4534 26.3338C61.9463 27.8623 59.4392 29.3907 56.9321 30.9192C56.5795 31.1151 56.1486 31.1543 55.7177 31.3111C55.561 30.8016 55.1301 30.4881 55.561 30.0178C55.6002 29.9786 55.561 29.7435 55.5218 29.7043C54.9342 29.2732 55.3651 28.9204 55.561 28.4893C55.7961 27.9799 56.5012 27.5879 56.0703 26.8041C56.7754 26.7257 57.4413 26.6082 58.1073 26.5298C58.2248 26.4906 58.3815 26.4514 58.499 26.373C59.2433 26.0595 59.9484 25.7068 60.6927 25.4324C61.7504 24.9621 61.7504 25.0013 62.1421 26.0595Z" fill="#0F3A5D"/>
<path d="M30.9993 11.7157C30.7251 11.7548 30.5292 11.794 30.2158 11.8332C30.2942 11.6373 30.2942 11.4805 30.3725 11.4021C30.7642 11.1278 31.156 10.8926 31.5477 10.6575C31.7044 10.5791 32.057 10.4224 32.0961 10.5007C32.4487 10.8535 32.8013 10.6183 33.1538 10.5007C33.8589 10.2656 34.4074 10.5007 34.9166 10.9318C35.3867 11.3237 35.9351 11.6373 36.4444 11.99C37.1103 12.4603 37.1495 13.0873 36.4444 13.5968C36.6794 13.7536 36.9145 13.9495 37.1495 14.0671C37.3846 14.2239 37.6196 14.3023 37.8938 14.459C37.3454 15.0469 37.3062 15.0469 35.5826 14.4198C35.3475 14.8509 35.5434 15.0469 35.896 15.2428C36.2877 15.4388 36.6403 15.6348 36.4836 16.1442C35.6609 16.6145 35.5042 15.4388 34.6424 15.4388C34.8775 15.7915 35.0733 15.9875 35.1517 16.2226C35.23 16.4186 35.23 16.6145 35.23 16.8105C35.0341 16.7713 34.8383 16.7713 34.6816 16.6929C34.4074 16.5362 34.1723 16.3402 33.8981 16.1834C33.7806 16.1051 33.5456 16.0659 33.5456 15.9483C33.428 15.2037 32.958 15.1645 32.3312 15.3996C32.3312 15.3212 32.292 15.2428 32.292 15.1645C32.4879 15.0469 32.6446 14.9685 32.8404 14.8901C33.2322 14.7334 33.7023 14.655 33.9373 14.3806C34.1332 14.1847 34.2507 13.5968 34.094 13.4009C33.7806 13.009 33.3497 12.7346 32.8796 12.4995C32.7229 12.4211 32.4095 12.4995 32.1745 12.5387C31.4694 12.6954 31.2735 12.5779 30.9993 11.7157Z" fill="#0F3A5D"/>
<path d="M71.8963 76.1064C69.7809 76.1064 67.6656 76.1064 65.5894 76.1064C65.4327 74.1861 66.8821 72.4225 68.6449 72.3833C70.4077 72.3833 72.0138 74.1469 71.8963 76.1064Z" fill="#F26537"/>
<path d="M72.6797 76.812C72.6797 77.4783 72.6797 78.0269 72.6797 78.6148C70.0942 78.6148 67.548 78.6148 64.9625 78.6148C64.9625 78.0269 64.9625 77.4391 64.9625 76.812C67.5088 76.812 70.0551 76.812 72.6797 76.812Z" fill="#F26537"/>
<path d="M33.9374 5.91553C36.3269 5.36685 38.7165 4.93575 41.2236 5.52362C39.3041 6.34663 37.4238 7.16964 35.5043 7.99265C35.5435 8.07103 35.5826 8.11023 35.6218 8.18861C35.3868 8.38456 35.1909 8.6589 34.9167 8.77647C34.2508 9.01162 32.8797 8.38456 32.6055 7.87508C32.9189 7.95346 33.3106 8.07103 33.6631 8.11023C33.7415 8.11023 33.8198 7.87508 33.8982 7.7967C33.3498 7.56155 32.8797 7.3264 32.1746 7.05207C32.8013 6.66016 33.1931 6.38582 33.624 6.11148C33.7023 7.13045 34.4858 7.52236 35.7785 7.28721C35.1909 6.97369 34.525 6.62097 33.8982 6.26825C33.8982 6.11148 33.8982 5.99391 33.9374 5.91553Z" fill="#0F3A5D"/>
<path d="M22.2635 11.4805C22.9295 11.0886 23.6738 10.6575 24.4181 10.2264C24.4964 10.1872 24.7315 10.1872 24.8098 10.2656C25.3974 10.8535 26.0634 10.9319 26.8077 10.5791C26.886 10.54 27.0035 10.5791 27.1602 10.5791C27.0819 10.6967 27.0427 10.8143 27.0035 10.8927C26.3768 12.813 25.985 13.0874 24.0264 12.9698C23.8305 12.9698 23.6346 12.813 23.4779 12.6955C23.1254 12.3427 22.7728 11.99 22.2635 11.4805Z" fill="#0F3A5D"/>
<path d="M84.1181 57.7261C84.7449 58.941 83.6481 61.8411 82.3553 62.5858C81.611 61.6844 82.4337 60.783 82.4337 59.9208C82.4729 58.8234 83.8831 58.745 84.1181 57.7261Z" fill="#0F3A5D"/>
<path d="M58.9694 18.339C58.891 19.0053 58.6951 19.5148 57.8725 19.5932C57.4416 19.6324 57.0107 19.7107 56.8148 19.1229C57.0107 19.0445 57.2066 19.0053 57.4024 18.9269C57.3632 18.8877 57.2849 18.8485 57.2457 18.8093C57.3632 18.535 57.4808 18.2607 57.5983 17.9863C57.6766 17.7904 57.755 17.6336 57.8725 17.4377C57.6766 17.3985 57.4808 17.3593 57.1674 17.2809C57.1282 17.2025 57.0107 17.0066 56.8932 16.8498C57.0107 16.4971 57.089 16.1835 57.2457 15.7524C58.3426 16.2619 58.0684 17.7512 58.9694 18.339Z" fill="#0F3A5D"/>
<path d="M30.2551 10.0306C30.0985 9.59948 30.0201 9.32514 29.9026 9.0508C30.2551 8.97242 30.5685 8.73728 30.9211 9.20757C31.0778 9.44271 31.5479 9.48191 32.0963 9.63867C31.9004 9.28595 31.7829 9.12919 31.7829 9.01161C31.7829 8.89404 32.0571 8.69808 32.0963 8.73728C32.9189 9.24676 33.8199 9.0508 34.7209 9.12919C34.7993 9.12919 34.8776 9.20757 35.1127 9.28595C34.6817 9.56029 34.3292 9.75624 33.8591 10.0698C33.9374 9.75624 33.9766 9.59948 33.9766 9.5211C32.6839 9.71705 31.4304 9.87382 30.2551 10.0306Z" fill="#0F3A5D"/>
<path d="M38.2069 22.6499C38.0894 23.0026 38.011 23.2378 37.9327 23.5513C38.1677 23.6689 38.4419 23.7864 38.6378 23.9824C38.7553 24.1 38.8336 24.3351 38.8336 24.5311C38.8336 24.6095 38.5594 24.8446 38.5203 24.8054C37.8151 24.3743 37.11 24.4919 36.3657 24.6486C36.9533 24.0608 36.9533 22.885 38.2069 22.6499Z" fill="#0F3A5D"/>
<path d="M51.4478 14.6551C52.3487 14.1456 54.3466 14.1456 54.7775 14.6551C53.6806 15.0862 52.5838 15.87 51.4478 14.6551Z" fill="#0F3A5D"/>
<path d="M60.3011 7.71815C60.1836 7.63976 60.0269 7.56138 59.8702 7.44381C60.2619 7.09109 60.5753 6.85594 61.0454 7.24785C61.1237 7.32624 61.3196 7.20866 61.4763 7.20866C61.4763 7.13028 61.4763 7.01271 61.4763 6.93433C61.7897 6.97352 62.103 7.0519 62.4164 7.09109C62.4164 7.16947 62.4164 7.24785 62.4556 7.36543C62.103 7.44381 61.7505 7.52219 61.3196 7.60057C61.4371 7.75734 61.5154 7.9141 61.6721 8.11006C61.5154 8.18844 61.3588 8.30601 61.0845 8.46278C61.1237 8.18844 61.1237 8.07087 61.1629 7.79653C60.7712 7.95329 60.4578 8.14925 60.1444 8.14925C59.831 8.14925 59.4784 7.9141 59.165 7.79653C59.165 7.71815 59.2042 7.63976 59.2042 7.56138C59.5959 7.63976 59.9877 7.71815 60.3402 7.83572C60.2619 7.79653 60.2619 7.75734 60.3011 7.71815Z" fill="#0F3A5D"/>
<path d="M26.0247 38.1697C25.3196 37.817 24.5361 37.5035 23.8702 37.0724C23.0475 36.4845 22.3032 37.0724 21.5198 37.0332C22.1465 36.5237 22.7733 36.2102 23.5568 36.5629C24.4186 36.994 25.3196 37.3859 26.1814 37.7778C26.1422 37.9346 26.0639 38.0521 26.0247 38.1697Z" fill="#0F3A5D"/>
<path d="M56.8144 17.6335C56.6577 18.0646 56.5794 18.339 56.4618 18.6133C56.1485 18.6917 55.7959 18.8092 55.4433 18.8876C55.2866 18.2606 55.6784 17.8687 56.0701 17.5943C56.1876 17.5159 56.501 17.6335 56.8144 17.6335Z" fill="#0F3A5D"/>
<path d="M26.8865 38.2871C27.4349 38.3655 27.9833 38.4047 28.5317 38.5223C28.6101 38.5614 28.6884 38.8358 28.7276 38.9925C28.5709 38.9925 28.4142 39.0317 28.2183 38.9925C28.0225 38.9925 27.8266 38.9534 27.6699 38.875C27.3565 38.7966 27.0823 38.679 26.8081 38.6006C26.8473 38.4831 26.8865 38.3655 26.8865 38.2871Z" fill="#0F3A5D"/>
<path d="M25.593 8.77637C25.9064 9.0507 26.1022 9.24666 26.3373 9.44262C26.2589 9.75614 26.2589 9.75614 24.6528 9.48181C25.0054 9.20747 25.2796 8.97232 25.593 8.77637Z" fill="#0F3A5D"/>
<path d="M68.7231 32.1341C69.8983 31.5854 70.1334 32.7611 70.8385 32.9571C69.8983 33.2706 69.5066 32.4084 68.7231 32.1341Z" fill="#0F3A5D"/>
<path d="M29.4324 15.0469C29.7849 15.0861 30.0983 15.1253 30.5292 15.2036C29.8633 16.2618 29.8633 16.2618 28.9623 15.7523C29.354 15.7131 29.6282 15.6347 30.02 15.5955C29.7458 15.478 29.5891 15.3996 29.3932 15.3212C29.3932 15.2428 29.4324 15.1253 29.4324 15.0469Z" fill="#0F3A5D"/>
<path d="M69.3501 9.99126C69.3893 10.1872 69.3893 10.3832 69.4285 10.7751C68.7625 10.4616 68.2141 10.1872 67.6656 9.91288C67.7048 9.8345 67.7048 9.75612 67.744 9.67773C68.2533 9.79531 68.7625 9.91288 69.3501 9.99126Z" fill="#0F3A5D"/>
<path d="M71.5047 11.4023C70.9171 11.8726 70.4078 11.9901 69.8986 11.2063C70.4862 11.2063 70.9954 10.736 71.5047 11.4023Z" fill="#0F3A5D"/>
<path d="M30.1378 7.63989C30.0595 7.83585 30.0203 7.99261 29.9419 8.22776C29.7853 8.11018 29.6286 7.99261 29.3935 7.83585C29.2368 8.07099 29.041 8.34533 28.8451 8.61967C29.0018 7.63989 29.0018 7.63989 30.1378 7.63989Z" fill="#0F3A5D"/>
<path d="M61.5545 23.6689C61.8287 23.9825 61.9854 24.1784 62.2596 24.4528C61.8287 24.492 61.4762 24.5703 60.9669 24.6095C61.202 24.2176 61.3587 23.9825 61.5545 23.6689Z" fill="#0F3A5D"/>
<path d="M28.3749 9.24661C27.8264 9.44256 27.3172 9.67771 26.7688 9.87366C26.7296 9.75609 26.6904 9.63852 26.6512 9.52094C27.1997 9.36418 27.7481 9.20742 28.3357 9.08984C28.3357 9.12903 28.3749 9.16823 28.3749 9.24661Z" fill="#0F3A5D"/>
<path d="M61.2409 17.4377C61.1626 17.1242 61.1234 16.889 61.045 16.6147C61.2801 16.6147 61.5543 16.5363 61.6326 16.6147C61.7502 16.7322 61.8285 17.0066 61.7502 17.1633C61.7502 17.2809 61.476 17.3201 61.2409 17.4377Z" fill="#0F3A5D"/>
</svg>
